<?xml version="1.0" encoding="utf-8"?>
<!-- Generator: Adobe Illustrator 19.0.0, SVG Export Plug-In . SVG Version: 6.00 Build 0)  -->
<svg version="1.1" id="Capa_1" xmlns="http://www.w3.org/2000/svg" xmlns:xlink="http://www.w3.org/1999/xlink" x="0px" y="0px"
	 viewBox="0 0 40 32" style="enable-background:new 0 0 40 32;" xml:space="preserve">
<style type="text/css">
	.st0{fill:none;stroke:#FFFFFF;stroke-width:3;stroke-linecap:round;stroke-linejoin:round;stroke-miterlimit:10;}
	.st1{fill:#FFFFFF;}
	.st2{fill:none;stroke:#28285B;stroke-width:2;stroke-miterlimit:10;}
</style>
<g id="XMLID_15_">
	<rect id="XMLID_36_" x="2.5" y="2" class="st0" width="35" height="28"/>
	<rect id="XMLID_35_" x="3" y="3.5" class="st1" width="35" height="5"/>
	<rect id="XMLID_34_" x="6" y="10.5" class="st1" width="4" height="4"/>
	<rect id="XMLID_33_" x="12" y="10.5" class="st1" width="4" height="4"/>
	<rect id="XMLID_32_" x="18" y="10.5" class="st1" width="4" height="4"/>
	<rect id="XMLID_31_" x="24" y="10.5" class="st1" width="4" height="4"/>
	<rect id="XMLID_30_" x="30" y="10.5" class="st1" width="4" height="4"/>
	<rect id="XMLID_29_" x="6" y="16.5" class="st1" width="4" height="4"/>
	<rect id="XMLID_28_" x="12" y="16.5" class="st1" width="4" height="4"/>
	<rect id="XMLID_27_" x="18" y="16.5" class="st1" width="4" height="4"/>
	<rect id="XMLID_26_" x="24" y="16.5" class="st1" width="4" height="4"/>
	<rect id="XMLID_25_" x="30" y="16.5" class="st1" width="4" height="4"/>
	<rect id="XMLID_24_" x="6" y="22.5" class="st1" width="4" height="4"/>
	<rect id="XMLID_23_" x="12" y="22.5" class="st1" width="4" height="4"/>
	<rect id="XMLID_22_" x="18" y="22.5" class="st1" width="4" height="4"/>
	<rect id="XMLID_21_" x="24" y="22.5" class="st1" width="4" height="4"/>
	<rect id="XMLID_20_" x="30" y="22.5" class="st1" width="4" height="4"/>
	<polygon id="XMLID_19_" class="st1" points="36.5,29 36.5,4 11,4 18.6,29 	"/>
	<line id="XMLID_16_" class="st2" x1="10" y1="0" x2="19.5" y2="32"/>
</g>
</svg>
