<?xml version="1.0" encoding="utf-8"?>
<!-- Generator: Adobe Illustrator 19.0.0, SVG Export Plug-In . SVG Version: 6.00 Build 0)  -->
<svg version="1.1" id="Capa_1" xmlns="http://www.w3.org/2000/svg" xmlns:xlink="http://www.w3.org/1999/xlink" x="0px" y="0px"
	 viewBox="0 0 63.6 76.6" style="enable-background:new 0 0 63.6 76.6;" xml:space="preserve">
<style type="text/css">
	.st0{fill-rule:evenodd;clip-rule:evenodd;fill:url(#XMLID_60_);}
	.st1{fill-rule:evenodd;clip-rule:evenodd;fill:#E6EAEB;}
	.st2{fill-rule:evenodd;clip-rule:evenodd;fill:url(#XMLID_61_);}
	.st3{fill-rule:evenodd;clip-rule:evenodd;fill:#2D3E50;}
	.st4{fill-rule:evenodd;clip-rule:evenodd;fill:url(#XMLID_62_);}
	.st5{fill-rule:evenodd;clip-rule:evenodd;fill:#425B74;}
	.st6{fill-rule:evenodd;clip-rule:evenodd;fill:#C54040;}
	.st7{fill-rule:evenodd;clip-rule:evenodd;fill:#E84C3D;}
</style>
<g id="XMLID_2_">
	<linearGradient id="XMLID_60_" gradientUnits="userSpaceOnUse" x1="11.7712" y1="39.0772" x2="58.565" y2="39.0772">
		<stop  offset="0" style="stop-color:#3158A5"/>
		<stop  offset="1" style="stop-color:#1C1E3F"/>
	</linearGradient>
	<polygon id="XMLID_20_" class="st0" points="19.5,68.6 11.8,64.1 12,64.2 12.2,64.3 12.4,64.4 12.6,64.5 12.8,64.6 13,64.7 
		13.2,64.8 13.4,64.9 13.6,64.9 13.9,65 14.1,65.1 14.3,65.1 14.5,65.2 14.8,65.3 15,65.3 15.2,65.4 15.5,65.4 15.7,65.4 15.9,65.5 
		16.2,65.5 16.4,65.5 16.7,65.6 16.9,65.6 17.2,65.6 17.4,65.6 17.7,65.6 17.9,65.6 18.2,65.6 18.4,65.6 18.7,65.6 18.9,65.6 
		19.2,65.5 19.4,65.5 19.7,65.5 20,65.4 20.2,65.4 20.5,65.4 20.7,65.3 21,65.2 21.3,65.2 21.5,65.1 21.8,65.1 22.1,65 22.3,64.9 
		22.6,64.8 22.9,64.8 23.1,64.7 23.4,64.6 23.7,64.5 24,64.4 24.2,64.3 24.5,64.2 24.8,64 25.1,63.9 25.4,63.8 25.6,63.7 25.9,63.5 
		26.2,63.4 26.5,63.3 26.8,63.1 27.1,63 27.4,62.8 27.7,62.6 27.9,62.5 28.2,62.3 28.5,62.1 28.8,62 29.1,61.8 29.4,61.6 29.7,61.4 
		30,61.2 30.2,61 30.5,60.8 30.8,60.6 31.1,60.4 31.4,60.2 31.6,60 31.9,59.8 32.2,59.6 32.5,59.3 32.7,59.1 33,58.9 33.3,58.7 
		33.6,58.4 33.8,58.2 34.1,58 34.4,57.7 34.6,57.5 34.9,57.2 35.1,57 35.4,56.7 35.7,56.5 35.9,56.2 36.2,56 36.4,55.7 36.7,55.4 
		36.9,55.2 37.2,54.9 37.5,54.6 37.7,54.3 38,54 38.2,53.7 38.5,53.4 38.7,53.1 39,52.8 39.2,52.5 39.5,52.2 39.7,51.9 39.9,51.6 
		40.2,51.3 40.4,51 40.7,50.7 40.9,50.4 41.1,50 41.3,49.7 41.6,49.4 41.8,49.1 42,48.8 42.2,48.4 42.5,48.1 42.7,47.8 42.9,47.4 
		43.1,47.1 43.3,46.8 43.5,46.4 43.7,46.1 43.9,45.8 44.1,45.4 44.3,45.1 44.5,44.7 44.7,44.4 44.9,44 45.1,43.7 45.3,43.3 45.4,43 
		45.6,42.6 45.8,42.3 46,41.9 46.1,41.6 46.3,41.2 46.5,40.9 46.6,40.5 46.8,40.1 46.9,39.8 47.1,39.4 47.3,39.1 47.4,38.7 
		47.6,38.3 47.7,38 47.8,37.6 48,37.3 48.1,36.9 48.2,36.5 48.4,36.2 48.5,35.8 48.6,35.4 48.7,35.1 48.9,34.7 49,34.3 49.1,34 
		49.2,33.6 49.3,33.3 49.4,32.9 49.5,32.6 49.6,32.2 49.6,31.9 49.7,31.5 49.8,31.2 49.9,30.8 50,30.5 50,30.1 50.1,29.8 50.2,29.4 
		50.2,29.1 50.3,28.7 50.4,28.4 50.4,28 50.5,27.7 50.5,27.3 50.6,27 50.6,26.6 50.6,26.3 50.7,25.9 50.7,25.6 50.7,25.2 50.7,24.9 
		50.8,24.6 50.8,24.2 50.8,23.9 50.8,23.5 50.8,23.2 50.8,22.9 50.8,22.5 50.8,22.2 50.8,21.9 50.8,21.6 50.8,21.2 50.7,20.9 
		50.7,20.6 50.7,20.3 50.7,20 50.6,19.7 50.6,19.4 50.6,19.1 50.5,18.8 50.5,18.5 50.4,18.2 50.4,17.9 50.3,17.6 50.2,17.3 
		50.2,17.1 50.1,16.8 50,16.5 50,16.3 49.9,16 49.8,15.7 49.7,15.5 49.6,15.2 49.6,15 49.5,14.7 49.4,14.5 49.3,14.2 49.2,14 
		49.1,13.8 49,13.5 48.9,13.3 48.7,13.1 48.6,12.8 48.5,12.6 48.4,12.4 48.2,12.2 48.1,12 48,11.8 47.8,11.6 47.7,11.4 47.6,11.2 
		47.4,11 47.3,10.8 47.1,10.6 46.9,10.4 46.8,10.2 46.6,10.1 46.5,9.9 46.3,9.7 46.1,9.6 46,9.4 45.8,9.3 45.6,9.1 45.4,9 45.3,8.8 
		45.1,8.7 44.9,8.6 44.7,8.4 44.5,8.3 44.3,8.2 44.1,8.1 51.9,12.6 52.1,12.7 52.3,12.8 52.5,12.9 52.6,13 52.8,13.2 53,13.3 
		53.2,13.5 53.4,13.6 53.5,13.7 53.7,13.9 53.9,14.1 54.1,14.2 54.2,14.4 54.4,14.6 54.6,14.7 54.7,14.9 54.9,15.1 55,15.3 
		55.2,15.5 55.3,15.6 55.5,15.8 55.6,16 55.7,16.2 55.9,16.5 56,16.7 56.1,16.9 56.3,17.1 56.4,17.3 56.5,17.6 56.6,17.8 56.7,18 
		56.8,18.3 56.9,18.5 57,18.7 57.1,19 57.2,19.2 57.3,19.5 57.4,19.7 57.5,20 57.6,20.2 57.7,20.5 57.7,20.7 57.8,21 57.9,21.3 
		57.9,21.5 58,21.8 58.1,22.1 58.1,22.4 58.2,22.7 58.2,23 58.3,23.3 58.3,23.6 58.4,23.9 58.4,24.2 58.4,24.5 58.5,24.8 58.5,25.1 
		58.5,25.4 58.5,25.7 58.5,26 58.5,26.4 58.6,26.7 58.6,27 58.6,27.4 58.6,27.7 58.6,28 58.5,28.4 58.5,28.7 58.5,29 58.5,29.4 
		58.5,29.7 58.5,30.1 58.4,30.4 58.4,30.8 58.4,31.1 58.3,31.5 58.3,31.8 58.2,32.1 58.2,32.5 58.1,32.8 58.1,33.2 58,33.5 
		57.9,33.9 57.9,34.2 57.8,34.6 57.7,34.9 57.7,35.3 57.6,35.6 57.5,36 57.4,36.3 57.3,36.7 57.2,37 57.1,37.4 57,37.8 56.9,38.1 
		56.8,38.5 56.7,38.8 56.6,39.2 56.5,39.5 56.4,39.9 56.3,40.3 56.1,40.6 56,41 55.9,41.4 55.7,41.7 55.6,42.1 55.5,42.5 55.3,42.8 
		55.2,43.2 55,43.5 54.9,43.9 54.7,44.3 54.6,44.6 54.4,45 54.2,45.3 54.1,45.7 53.9,46 53.7,46.4 53.5,46.8 53.4,47.1 53.2,47.5 
		53,47.8 52.8,48.2 52.6,48.5 52.5,48.9 52.3,49.2 52.1,49.5 51.9,49.9 51.7,50.2 51.5,50.6 51.3,50.9 51.1,51.2 50.9,51.6 
		50.6,51.9 50.4,52.3 50.2,52.6 50,52.9 49.8,53.2 49.6,53.6 49.3,53.9 49.1,54.2 48.9,54.5 48.6,54.8 48.4,55.2 48.2,55.5 
		47.9,55.8 47.7,56.1 47.5,56.4 47.2,56.7 47,57 46.7,57.3 46.5,57.6 46.2,57.9 46,58.2 45.7,58.5 45.5,58.8 45.2,59.1 45,59.4 
		44.7,59.6 44.4,59.9 44.2,60.2 43.9,60.4 43.7,60.7 43.4,61 43.2,61.2 42.9,61.5 42.6,61.7 42.4,62 42.1,62.2 41.9,62.4 41.6,62.7 
		41.3,62.9 41,63.2 40.8,63.4 40.5,63.6 40.2,63.8 40,64 39.7,64.3 39.4,64.5 39.1,64.7 38.8,64.9 38.6,65.1 38.3,65.3 38,65.5 
		37.7,65.7 37.4,65.9 37.1,66.1 36.9,66.3 36.6,66.4 36.3,66.6 36,66.8 35.7,67 35.4,67.1 35.1,67.3 34.8,67.4 34.5,67.6 34.3,67.7 
		34,67.9 33.7,68 33.4,68.2 33.1,68.3 32.8,68.4 32.6,68.5 32.3,68.6 32,68.7 31.7,68.9 31.5,69 31.2,69.1 30.9,69.1 30.6,69.2 
		30.4,69.3 30.1,69.4 29.8,69.5 29.6,69.5 29.3,69.6 29,69.7 28.8,69.7 28.5,69.8 28.2,69.8 28,69.9 27.7,69.9 27.5,70 27.2,70 
		27,70 26.7,70 26.4,70.1 26.2,70.1 25.9,70.1 25.7,70.1 25.4,70.1 25.2,70.1 24.9,70.1 24.7,70.1 24.4,70 24.2,70 23.9,70 23.7,70 
		23.5,69.9 23.2,69.9 23,69.8 22.8,69.8 22.5,69.7 22.3,69.7 22.1,69.6 21.8,69.6 21.6,69.5 21.4,69.4 21.2,69.3 21,69.3 20.8,69.2 
		20.6,69.1 20.3,69 20.1,68.9 19.9,68.8 19.7,68.7 	"/>
	<path id="XMLID_19_" class="st1" d="M33.3,13.1c-12.5,7.2-22.6,24.7-22.6,39.1c0,14.4,10.1,20.2,22.6,13
		C45.7,58,55.8,40.5,55.8,26.1C55.8,11.7,45.7,5.9,33.3,13.1z"/>
	<linearGradient id="XMLID_61_" gradientUnits="userSpaceOnUse" x1="2.1871" y1="28.9829" x2="97.5765" y2="58.2322">
		<stop  offset="0" style="stop-color:#3158A5"/>
		<stop  offset="1" style="stop-color:#1C1E3F"/>
	</linearGradient>
	<polygon id="XMLID_18_" class="st2" points="27.9,3.8 28.7,3.4 29.4,3 30.1,2.7 30.8,2.3 31.5,2 32.2,1.7 32.9,1.5 33.6,1.2 
		34.2,1 34.9,0.8 35.6,0.6 36.2,0.5 36.9,0.3 37.5,0.2 38.2,0.1 38.8,0.1 39.4,0 40.1,0 40.7,0 41.3,0 41.8,0.1 42.4,0.1 43,0.2 
		43.6,0.3 44.1,0.4 44.7,0.6 45.2,0.7 45.7,0.9 46.2,1.1 46.7,1.3 47.2,1.6 55,6.1 54.5,5.8 54,5.6 53.5,5.4 52.9,5.2 52.4,5.1 
		51.9,4.9 51.3,4.8 50.8,4.7 50.2,4.6 49.6,4.5 49,4.5 48.4,4.5 47.8,4.5 47.2,4.5 46.6,4.6 45.9,4.6 45.3,4.7 44.7,4.8 44,4.9 
		43.3,5.1 42.7,5.3 42,5.5 41.3,5.7 40.6,5.9 40,6.2 39.3,6.5 38.6,6.8 37.9,7.1 37.1,7.5 36.4,7.9 35.7,8.3 35,8.7 34.3,9.2 
		33.6,9.6 32.8,10.1 32.1,10.6 31.4,11.1 30.8,11.7 30.1,12.2 29.4,12.8 28.7,13.3 28.1,13.9 27.4,14.5 26.7,15.2 26.1,15.8 
		25.5,16.4 24.8,17.1 24.2,17.8 23.6,18.5 23,19.2 22.4,19.9 21.8,20.6 21.2,21.3 20.6,22.1 20.1,22.8 19.5,23.6 19,24.4 18.5,25.1 
		17.9,25.9 17.4,26.7 16.9,27.5 16.4,28.3 15.9,29.1 15.5,30 15,30.8 14.6,31.6 14.1,32.5 13.7,33.3 13.3,34.2 12.9,35 12.5,35.9 
		12.2,36.8 11.8,37.6 11.5,38.5 11.1,39.4 10.8,40.2 10.5,41.1 10.2,42 10,42.9 9.7,43.7 9.5,44.6 9.2,45.5 9,46.4 8.8,47.2 
		8.6,48.1 8.5,49 8.3,49.9 8.2,50.7 8.1,51.6 8,52.4 7.9,53.3 7.8,54.2 7.8,55 7.8,55.8 7.8,56.7 7.8,57.5 7.8,58.3 7.8,59.1 
		7.9,59.9 8,60.7 8.1,61.4 8.2,62.1 8.3,62.9 8.5,63.6 8.6,64.2 8.8,64.9 9,65.6 9.2,66.2 9.5,66.8 9.7,67.4 10,68 10.2,68.5 
		10.5,69.1 10.8,69.6 11.1,70.1 11.5,70.6 11.8,71.1 12.2,71.5 12.5,72 12.9,72.4 13.3,72.8 13.7,73.2 14.1,73.5 14.6,73.9 15,74.2 
		15.5,74.5 7.7,70 7.3,69.7 6.8,69.4 6.4,69 6,68.7 5.6,68.3 5.2,67.9 4.8,67.5 4.4,67.1 4,66.6 3.7,66.1 3.4,65.6 3.1,65.1 
		2.8,64.6 2.5,64.1 2.2,63.5 1.9,62.9 1.7,62.3 1.5,61.7 1.3,61.1 1.1,60.4 0.9,59.8 0.7,59.1 0.6,58.4 0.4,57.7 0.3,56.9 0.2,56.2 
		0.1,55.4 0.1,54.6 0,53.8 0,53 0,52.2 0,51.4 0,50.5 0.1,49.7 0.1,48.8 0.2,48 0.3,47.1 0.4,46.2 0.6,45.4 0.7,44.5 0.9,43.6 
		1.1,42.8 1.3,41.9 1.5,41 1.7,40.1 1.9,39.3 2.2,38.4 2.5,37.5 2.8,36.6 3.1,35.8 3.4,34.9 3.7,34 4,33.1 4.4,32.3 4.8,31.4 
		5.2,30.6 5.6,29.7 6,28.8 6.4,28 6.8,27.2 7.3,26.3 7.7,25.5 8.2,24.7 8.7,23.9 9.2,23 9.7,22.2 10.2,21.4 10.7,20.7 11.2,19.9 
		11.8,19.1 12.3,18.3 12.9,17.6 13.5,16.8 14,16.1 14.6,15.4 15.2,14.7 15.8,14 16.4,13.3 17.1,12.6 17.7,12 18.3,11.3 19,10.7 
		19.6,10.1 20.3,9.5 21,8.9 21.6,8.3 22.3,7.7 23,7.2 23.7,6.6 24.4,6.1 25.1,5.6 25.8,5.1 26.5,4.7 27.2,4.2 	"/>
	<polygon id="XMLID_17_" class="st3" points="19.1,68.3 11.4,63.8 11.6,64 11.8,64.1 19.5,68.6 19.3,68.4 	"/>
	<polygon id="XMLID_16_" class="st3" points="51.9,12.6 44.1,8.1 43.9,8 43.7,7.9 51.5,12.3 51.7,12.4 	"/>
	<linearGradient id="XMLID_62_" gradientUnits="userSpaceOnUse" x1="62.4316" y1="-13.1892" x2="12.6288" y2="86.9434">
		<stop  offset="0" style="stop-color:#3158A5"/>
		<stop  offset="1" style="stop-color:#1C1E3F"/>
	</linearGradient>
	<path id="XMLID_13_" class="st4" d="M15.9,29.1C21,20.4,28,12.7,35.7,8.3c7.7-4.5,14.7-4.9,19.8-2c5.1,2.9,8.2,9.2,8.2,18.1
		c0,8.9-3.1,18.8-8.2,27.5c-5.1,8.8-12,16.4-19.8,20.9c-7.7,4.5-14.7,4.9-19.8,2c-5.1-2.9-8.2-9.2-8.2-18.1
		C7.8,47.8,10.9,37.9,15.9,29.1L15.9,29.1z M51.9,12.6c-2.1-1.2-4.6-1.7-7.4-1.5c-2.7,0.3-5.6,1.3-8.7,3.1c-3.1,1.8-6.1,4.2-8.7,7
		c-2.8,2.9-5.3,6.4-7.4,10c-2.1,3.7-3.8,7.5-5,11.4c-1.1,3.8-1.7,7.5-1.7,11.1c0,3.6,0.6,6.6,1.7,9.1c1.2,2.6,2.9,4.5,5,5.7
		c2.1,1.2,4.6,1.7,7.4,1.4c2.7-0.3,5.6-1.3,8.7-3.1c3.1-1.8,6.1-4.2,8.7-7c2.8-2.9,5.3-6.4,7.4-10c2.1-3.7,3.8-7.5,5-11.4
		c1.1-3.8,1.7-7.5,1.7-11.1c0-3.6-0.6-6.6-1.7-9.1C55.7,15.7,54,13.8,51.9,12.6z"/>
	<g id="XMLID_10_">
		<polygon id="XMLID_12_" class="st3" points="22.6,39.3 21.9,38.8 23.9,34.5 24.7,35 		"/>
		<polygon id="XMLID_11_" class="st3" points="24.7,35 23.9,34.5 38.3,38.6 39.1,39.1 		"/>
	</g>
	<polygon id="XMLID_9_" class="st5" points="39.1,39.1 37,43.4 22.6,39.3 24.7,35 	"/>
	
		<rect id="XMLID_8_" x="40" y="15.3" transform="matrix(0.866 0.5 -0.5 0.866 21.3999 -15.8618)" class="st3" width="0.7" height="33.4"/>
	<polygon id="XMLID_7_" class="st5" points="33.4,47.3 32.2,46.6 48.9,17.7 50.1,18.4 47.1,23.6 	"/>
	<g id="XMLID_4_">
		<polygon id="XMLID_6_" class="st6" points="38,36 37.6,35.7 36.6,35.9 37,36.1 		"/>
		<polygon id="XMLID_5_" class="st6" points="37,36.1 36.6,35.9 29,65.3 29.4,65.6 		"/>
	</g>
	<polygon id="XMLID_3_" class="st7" points="29.4,65.6 30.3,65.4 38,36 37,36.1 	"/>
</g>
</svg>
