<svg xmlns="http://www.w3.org/2000/svg" viewBox="0 0 33.4 36.16"><defs><style>.cls-1{fill:#feffff;}.cls-2{fill:#2093ff;}</style></defs><title>Asset 2</title><g id="Layer_2" data-name="Layer 2"><g id="homeWEB"><path class="cls-1" d="M25.48,17.53h0a7.39,7.39,0,0,1,1.74,4.77h0a7.42,7.42,0,0,1-5,7,4.3,4.3,0,0,0-.76-2.35,4.94,4.94,0,1,0-4.39-8.79,7.41,7.41,0,0,0-7.56-5.74,7.51,7.51,0,0,0-6.94,6,7.31,7.31,0,0,0,.29,3.9h0a7.44,7.44,0,0,0,3.34,4l0,0a4.3,4.3,0,0,0-1.16,2.13A9.91,9.91,0,0,1,.32,22.3h0a9.3,9.3,0,0,1,.3-5.79A10.1,10.1,0,0,1,9.18,10a9.9,9.9,0,0,1,3.52.38,7.41,7.41,0,0,1,12.79,7.2ZM18.56,9.9a4.93,4.93,0,0,0-3.5,1.45A10,10,0,0,1,18.54,15a7.1,7.1,0,0,1,4.88.82h0A4.94,4.94,0,0,0,18.56,9.9Z"/><path class="cls-2" d="M32.17,15.7H29.69a1.24,1.24,0,1,1,0-2.47h2.47a1.24,1.24,0,0,1,0,2.47Z"/><path class="cls-2" d="M27.31,7.85A1.24,1.24,0,1,1,25.56,6.1l1.75-1.75A1.24,1.24,0,0,1,29.06,6.1Z"/><path class="cls-2" d="M18.24,4.95A1.24,1.24,0,0,1,17,3.71V1.24a1.24,1.24,0,1,1,2.47,0V3.71A1.24,1.24,0,0,1,18.24,4.95Z"/><path class="cls-2" d="M9.81,7.85,8.06,6.1A1.24,1.24,0,0,1,9.81,4.35L11.56,6.1A1.24,1.24,0,1,1,9.81,7.85Z"/><path class="cls-2" d="M9.28,26.73,10.59,28A1.86,1.86,0,1,1,8,28Z"/><path class="cls-2" d="M13.61,31.68,14.92,33a1.86,1.86,0,1,1-2.62,0Z"/><path class="cls-2" d="M17.94,26.73,19.25,28a1.86,1.86,0,1,1-2.62,0Z"/></g></g></svg>