<svg xmlns="http://www.w3.org/2000/svg" viewBox="0 0 95.5 51.23"><defs><style>.cls-1{fill:#1b1464;}.cls-2{fill:#fff;}</style></defs><title>Recurso 3</title><g id="Capa_2" data-name="Capa 2"><g id="BG"><path class="cls-1" d="M71.52,2c8.19,0,21.93,2.1,21.93,16.19V21H2v-16A2.87,2.87,0,0,1,4.92,2h66.6m0-2H4.92A4.93,4.93,0,0,0,0,4.92V23H95.5V18.24C95.5,5.05,84.71,0,71.52,0Z"/><path class="cls-1" d="M0,23V38.53a4.93,4.93,0,0,0,4.92,4.92h8.66a7,7,0,1,0,13.83,0H69.32a7,7,0,1,0,13.83,0h7.43a4.93,4.93,0,0,0,4.92-4.92V23Z"/><path class="cls-2" d="M50.16,39.32H47.44v-11a4.43,4.43,0,0,1-1.87.76l-.23-2.29a3.25,3.25,0,0,0,.76-.32,5.1,5.1,0,0,0,.82-.56,5.5,5.5,0,0,0,.7-.7,2.89,2.89,0,0,0,.46-.73h2.08Z"/></g></g></svg>