<svg xmlns="http://www.w3.org/2000/svg" viewBox="0 0 95.5 51.23"><defs><style>.cls-1{fill:#1b1464;}.cls-2{fill:#fff;}</style></defs><title>Recurso 4</title><g id="Capa_2" data-name="Capa 2"><g id="BG"><path class="cls-1" d="M95.5,18.24C95.5,5.05,84.71,0,71.52,0H4.92A4.93,4.93,0,0,0,0,4.92V23H95.5Z"/><path class="cls-1" d="M93.45,25.05V38.53a2.87,2.87,0,0,1-2.87,2.87H80.85l.27,2.29a5,5,0,0,1,0,.58,4.92,4.92,0,0,1-9.84,0,5,5,0,0,1,0-.58l.27-2.29H25.1l.27,2.29a4.92,4.92,0,1,1-9.76,0l.27-2.29h-11A2.87,2.87,0,0,1,2,38.53V25.05h91.4m2-2H0V38.53a4.93,4.93,0,0,0,4.92,4.92h8.66a7,7,0,0,0-.05.82,7,7,0,1,0,13.88-.82H69.32a7,7,0,1,0,13.88.82,7.09,7.09,0,0,0-.05-.82h7.43a4.93,4.93,0,0,0,4.92-4.92V23Z"/><path class="cls-2" d="M52.29,20.34H43.21q1.4-2,2.39-3.53t1.66-2.62q.67-1.1,1-1.87T48.89,11a4.31,4.31,0,0,0,.25-.86,3.92,3.92,0,0,0,.05-.59A2.15,2.15,0,0,0,48.65,8a2,2,0,0,0-1.52-.55q-1.91,0-3.42,2.27l-.34-2.44A3.18,3.18,0,0,1,44,6.54a4.41,4.41,0,0,1,.94-.67,5.94,5.94,0,0,1,1.25-.49,5.72,5.72,0,0,1,1.51-.19,4.68,4.68,0,0,1,1.84.33,3.57,3.57,0,0,1,1.27.88,3.48,3.48,0,0,1,.73,1.27,4.87,4.87,0,0,1,.23,1.51,6.36,6.36,0,0,1-.21,1.57,11.21,11.21,0,0,1-.68,1.85,24.84,24.84,0,0,1-1.21,2.27q-.74,1.25-1.78,2.84h4.41Z"/></g></g></svg>