<svg xmlns="http://www.w3.org/2000/svg" xmlns:xlink="http://www.w3.org/1999/xlink" viewBox="0 0 231.8 231.8"><defs><style>.cls-1{fill:#fff;}.cls-2{fill:#f4b68e;}.cls-3{fill:#ffd0ab;}.cls-4{fill:url(#Degradado_sin_nombre_76);}.cls-5{fill:url(#Degradado_sin_nombre_76-2);}.cls-6{fill:#fcbf95;}.cls-7{fill:#2c2c31;}.cls-8{fill:url(#Degradado_sin_nombre_76-3);}.cls-9{fill:url(#linear-gradient);}.cls-10{fill:url(#linear-gradient-2);}.cls-11{fill:url(#Degradado_sin_nombre_76-4);}.cls-12{fill:url(#Degradado_sin_nombre_76-5);}.cls-13{fill:url(#Degradado_sin_nombre_76-6);}.cls-14{fill:url(#linear-gradient-3);}.cls-15{fill:url(#linear-gradient-4);}.cls-16{fill:url(#Degradado_sin_nombre_76-7);}.cls-17{fill:url(#Degradado_sin_nombre_76-8);}.cls-18{fill:url(#Degradado_sin_nombre_76-9);}.cls-19{fill:url(#linear-gradient-5);}.cls-20{fill:url(#linear-gradient-6);}</style><linearGradient id="Degradado_sin_nombre_76" x1="499" y1="85.72" x2="593.62" y2="172.74" gradientTransform="matrix(-1, 0, 0, 1, 631.13, 0)" gradientUnits="userSpaceOnUse"><stop offset="0" stop-color="#004fff"/><stop offset="1" stop-color="#000048"/></linearGradient><linearGradient id="Degradado_sin_nombre_76-2" x1="-2275.41" y1="-43.12" x2="-2406.16" y2="239.78" gradientTransform="matrix(-1, 0, 0, 1, -2206.73, 0)" xlink:href="#Degradado_sin_nombre_76"/><linearGradient id="Degradado_sin_nombre_76-3" x1="155.56" y1="92.15" x2="250.19" y2="179.17" gradientTransform="matrix(1, 0, 0, 1, 0, 0)" xlink:href="#Degradado_sin_nombre_76"/><linearGradient id="linear-gradient" x1="150.03" y1="95.51" x2="143.97" y2="86.69" gradientUnits="userSpaceOnUse"><stop offset="0" stop-color="#004fff"/><stop offset="0.32" stop-color="#0036c4"/><stop offset="1" stop-color="#000048"/></linearGradient><linearGradient id="linear-gradient-2" x1="129.57" y1="96.03" x2="132.88" y2="85.77" xlink:href="#linear-gradient"/><linearGradient id="Degradado_sin_nombre_76-4" x1="565.56" y1="98.82" x2="670.35" y2="195.18" xlink:href="#Degradado_sin_nombre_76"/><linearGradient id="Degradado_sin_nombre_76-5" x1="-2202.03" y1="-43.87" x2="-2346.83" y2="269.43" gradientTransform="matrix(-1, 0, 0, 1, -2206.73, 0)" xlink:href="#Degradado_sin_nombre_76"/><linearGradient id="Degradado_sin_nombre_76-6" x1="91.52" y1="105.94" x2="196.31" y2="202.3" gradientTransform="matrix(1, 0, 0, 1, 0, 0)" xlink:href="#Degradado_sin_nombre_76"/><linearGradient id="linear-gradient-3" x1="85.39" y1="109.66" x2="78.68" y2="99.89" xlink:href="#linear-gradient"/><linearGradient id="linear-gradient-4" x1="62.73" y1="110.23" x2="66.4" y2="98.88" xlink:href="#linear-gradient"/><linearGradient id="Degradado_sin_nombre_76-7" x1="511.19" y1="122.29" x2="619.45" y2="221.85" xlink:href="#Degradado_sin_nombre_76"/><linearGradient id="Degradado_sin_nombre_76-8" x1="-2254.08" y1="-25.13" x2="-2403.67" y2="298.56" gradientTransform="matrix(-1, 0, 0, 1, -2206.73, 0)" xlink:href="#Degradado_sin_nombre_76"/><linearGradient id="Degradado_sin_nombre_76-9" x1="146.76" y1="129.65" x2="255.02" y2="229.21" gradientTransform="matrix(1, 0, 0, 1, 0, 0)" xlink:href="#Degradado_sin_nombre_76"/><linearGradient id="linear-gradient-5" x1="140.43" y1="133.49" x2="133.49" y2="123.4" xlink:href="#linear-gradient"/><linearGradient id="linear-gradient-6" x1="117.02" y1="134.08" x2="120.8" y2="122.35" xlink:href="#linear-gradient"/></defs><title>Recurso 2</title><g id="Capa_2" data-name="Capa 2"><g id="header"><circle class="cls-1" cx="115.9" cy="115.9" r="115.9"/><path class="cls-2" d="M106.36,104.16c-1.14,10,4.2,22.06,4.13,23.21s-2.7,23.69-2.7,23.69l4.54-.06,4.88-21.69.18-26.67S107.5,94.16,106.36,104.16Z"/><path class="cls-3" d="M111.72,103.11s2.19,26,1.89,27.3-3.89,16.36-5.19,18c-3,3.71,6.64-.07,6.64-.07l7.34-19.55.33-27.16Z"/><path class="cls-4" d="M119.12,85.68s-13.7,5-15,17.92c-.91,8.94,17,6.17,19.34,4.54C127.07,103.15,119.12,85.68,119.12,85.68Z"/><path class="cls-5" d="M128.56,80.42s25.14-.63,27.41,2.26,22.36,11.57,24.22,23.12-5.47,50.25-9.58,50.46c-12.46.66-11.75,3.31-43.95-2.14-9.67-1.64-12.7-5.83-12.7-5.83-.85-12.76-6.39-42.62,2-59.7C117.77,84.82,126.19,83.79,128.56,80.42Z"/><path class="cls-2" d="M128.9,68.41l.3,13.26v.65c-.43-.15-7.87,13.06,3.67,17.18a30.82,30.82,0,0,0,4.89.64c9.46-13.27,6.09-25.87,6.08-33.84Z"/><path class="cls-2" d="M155,75.2a75.29,75.29,0,0,1,.94-8l-12.12-.91a79.06,79.06,0,0,1-2.53,20.17A25.21,25.21,0,0,0,155,75.2Z"/><path class="cls-3" d="M155.06,71.6c-3.43,6-12.79,11.75-18,13.63a26.58,26.58,0,0,0,.68,14.91C148,101,154.4,87.67,156,82.67a5,5,0,0,1-.79-2.19A72.89,72.89,0,0,1,155.06,71.6Z"/><path class="cls-3" d="M144,28.65h-3.44s-7.49,30.9-9.26,32c-2.82,1.69,2.42,6.58,2.42,6.58s-.21,0-.06,4c.09,2.24,4.43,3.39,3.71,8.48,7.81.66,19.39-2.51,24.24-17.9C167.36,43.41,159.85,29.47,144,28.65Z"/><path class="cls-6" d="M135.36,70.22A7,7,0,0,0,132,64.51l3.21-8.2A58.65,58.65,0,0,1,144,29.4c-25.93-1.34-24.24,46.1-10.63,50.27a19.48,19.48,0,0,0,4,.75C138.07,75.33,135.44,72.47,135.36,70.22Z"/><path class="cls-7" d="M145.35,27.57c14.33,1.22,25.81,22.27,13.65,41-1,2.27,2.65-10.44.05-11.18-1.46-.42-6.48,1.57-6.26,5,.17,2.67-3.63-2-3.63-2l-1-5.43c3-15.53-12.14-8.39-12.14-8.39s-9.62-6.71-11.67,2.86c-1.62,7.58-1.13,1.78-1.46,1C123.42,41.78,127.79,26.07,145.35,27.57Z"/><path class="cls-7" d="M151.06,31.25h2.57l1.88-1.88-1.06,3.1,2.64-2.16L156,33.53l4.08,2.93H156L163.52,42l-5.37-2.58,7.33,8.43L159.2,43l4.57,9.28-4.86-6.43,4.28,10.77-5-8.49L150,40.64l-11-4.32-8.45,3.28L125.92,44l-2.29,8.55s2.43-8.84,0-12.12l2.8-1.43-3.31-2,5.37.43-5.14-4,9-1.71-3.69-.86,7.19-2.18,5.35-.68"/><path class="cls-1" d="M153.47,115.13a4.52,4.52,0,0,0,2.7-3.35c0-1.13-1.59-2.94-1.76-3.07s-.72-.13-1.89,0c-3.2.43-5.46,3.39-6.15,4.78s0,1.81,0,1.81l1.11-1.37c1.11-1.37,1.7-1.28,1.7-1.28l-.57,1.63c-.37,1.07-.78,1.48-1.37,1.54-.09.67.3,1.3.26,1.72-.26,1.24-2,3.89-2.2,4.68-.44,1.6,3.65,2.81,6.94,1.37,2.91-1.27,4.3-3.2,4.68-4.69h0C158,115.54,153.47,115.13,153.47,115.13Zm-.76-4.09a5.32,5.32,0,0,0,1.74.11,2.6,2.6,0,0,1-.74,1.57,10.75,10.75,0,0,1-3.39,2.28l.24-1.24a2.07,2.07,0,0,0-.52-1.91A3,3,0,0,1,152.71,111Zm-3.37,6.2a3.29,3.29,0,0,1,1-.36,13.31,13.31,0,0,1,3.41-.07c1.27.23,1.67.84,1.77,1.72h0a1.9,1.9,0,0,1-.24.88,5.86,5.86,0,0,1-1.31,1.5h0a5.74,5.74,0,0,1-5.9,1.13h0a6.28,6.28,0,0,1-.85-.48C147.77,120.18,149.34,117.24,149.34,117.24Z"/><path class="cls-2" d="M163.66,109.54c-1.14,10,4.2,22.06,4.13,23.21s-8.3,24.48-8.3,24.48l10.14-.84,4.88-21.69.18-26.67S164.8,99.54,163.66,109.54Z"/><path class="cls-3" d="M171.62,109.54s2.19,26,1.89,27.3-3.89,16.36-5.19,18c-3,3.71,6.64-.07,6.64-.07l7.34-19.55.33-27.16Z"/><path class="cls-8" d="M168.57,92.1s13.7,5,15,17.92c.91,8.94-17,6.17-19.34,4.54C160.62,109.58,168.57,92.1,168.57,92.1Z"/><path class="cls-9" d="M144,102.66S160,89.24,158,84.31s-2.76-3.44-2.76-3.44c-.14,7-18.09,19.31-18.09,19.31C137.31,102.09,143.13,97.77,144,102.66Z"/><path class="cls-10" d="M125.39,81.67a8.52,8.52,0,0,1,3.78-1.26c-4.58,2.14,8,19.78,8,19.78,0,1.57-4-3-6.55,2.47C130.61,102.66,121.18,89.38,125.39,81.67Z"/><path class="cls-2" d="M34.87,117.35c-1.27,11.07,4.65,24.43,4.57,25.7s-3,26.24-3,26.24l5-.06,5.41-24,.19-29.54S36.14,106.28,34.87,117.35Z"/><path class="cls-3" d="M42.85,118.08s2.43,28.79,2.1,30.23-4.3,18.12-5.75,19.9c-3.34,4.11,7.36-.08,7.36-.08l8.13-21.65.36-30.08Z"/><path class="cls-11" d="M51.16,98.77S36,104.33,34.54,118.61c-1,9.9,18.78,6.84,21.42,5C60,118.12,51.16,98.77,51.16,98.77Z"/><path class="cls-12" d="M61.62,92.94s27.84-.69,30.35,2.5,24.77,12.81,26.82,25.6-6.05,55.64-10.61,55.89c-13.8.73-13,3.67-48.67-2.36-10.71-1.81-14.06-6.46-14.06-6.46-.94-14.13-7.08-47.2,2.17-66.11C49.66,97.82,59,96.68,61.62,92.94Z"/><path class="cls-2" d="M62,79.65l.33,14.68,0,.72c-.47-.17-8.72,14.46,4.07,19a34.13,34.13,0,0,0,5.41.71c10.47-14.69,6.75-28.65,6.73-37.47Z"/><path class="cls-2" d="M90.93,87.16a83.38,83.38,0,0,1,1-8.84l-13.43-1a87.56,87.56,0,0,1-2.81,22.34A27.92,27.92,0,0,0,90.93,87.16Z"/><path class="cls-3" d="M91,83.18c-3.8,6.65-14.17,13-19.9,15.09a29.44,29.44,0,0,0,.75,16.51C83.16,115.78,90.23,101,92,95.44A5.48,5.48,0,0,1,91.09,93,80.72,80.72,0,0,1,91,83.18Z"/><path class="cls-3" d="M78.69,36.46H74.89s-8.3,34.21-10.26,35.39c-3.12,1.87,2.68,7.28,2.68,7.28s-.24,0-.07,4.43c.09,2.49,4.9,3.76,4.1,9.39,8.65.73,21.48-2.77,26.84-19.82C104.58,52.81,96.26,37.38,78.69,36.46Z"/><path class="cls-6" d="M69.14,81.65a7.72,7.72,0,0,0-3.73-6.32L69,66.25a65,65,0,0,1,9.71-29.8C50,35,51.84,87.51,66.91,92.12a21.57,21.57,0,0,0,4.44.83C72.15,87.31,69.24,84.14,69.14,81.65Z"/><path class="cls-7" d="M80.21,34.42c15.87,1.35,28.58,24.67,15.12,45.45-1.08,2.51,2.94-11.56.06-12.38-1.62-.46-7.17,1.73-6.93,5.5.19,3-4-2.19-4-2.19l-1.07-6c3.28-17.2-13.45-9.29-13.45-9.29S59.27,48.07,57,58.66c-1.8,8.39-1.25,2-1.61,1.11C55.93,50.16,60.76,32.76,80.21,34.42Z"/><path class="cls-7" d="M88.55,39.07h.82l2.08-2.65-1.17,3.44,2.92-2.39L92,41l4.52,3.26H92l8.36,6.16-6-2.85,8.12,9.34-7-5.38,5.06,10.28-5.38-7.12L100,66.64l-5.59-9.4-9-8.35L73.24,44.11l-9.36,3.64-5.19,4.9-2.53,9.47s2.69-9.79,0-13.43l3.1-1.58L55.6,44.9l5.94.47-5.69-4.43,10-1.9-4.08-.95,8-2.41,5.93-.75"/><path class="cls-1" d="M89.2,131.38c1.81-.92,2.94-2.46,3-3.71s-1.76-3.25-2-3.4-.79-.14-2.1,0c-3.54.48-6,3.76-6.82,5.3s0,2,0,2l1.23-1.52c1.23-1.52,1.88-1.42,1.88-1.42l-.63,1.81c-.41,1.18-.87,1.64-1.52,1.71-.1.75.34,1.45.29,1.9-.29,1.37-2.19,4.31-2.43,5.18-.49,1.77,4,3.11,7.68,1.52,3.22-1.41,4.76-3.55,5.18-5.19h0C94.25,131.84,89.2,131.38,89.2,131.38Zm-.84-4.53a5.89,5.89,0,0,0,1.93.12,2.88,2.88,0,0,1-.82,1.73,11.9,11.9,0,0,1-3.76,2.53l.26-1.37a2.29,2.29,0,0,0-.58-2.12A3.32,3.32,0,0,1,88.36,126.85Zm-3.73,6.87a3.65,3.65,0,0,1,1.09-.4,14.74,14.74,0,0,1,3.77-.08c1.4.25,1.85.93,2,1.9h0a2.1,2.1,0,0,1-.27,1,6.49,6.49,0,0,1-1.45,1.66h0A6.36,6.36,0,0,1,83.2,139h0a7,7,0,0,1-.94-.53C82.89,137,84.63,133.72,84.63,133.72Z"/><path class="cls-2" d="M102.59,125.2c-1.27,11.07,4.65,24.43,4.57,25.7S98,178,98,178l11.22-.93,5.41-24,.19-29.54S103.85,114.13,102.59,125.2Z"/><path class="cls-3" d="M110.57,125.2s2.43,28.79,2.1,30.23-4.3,18.12-5.75,19.9c-3.34,4.11,7.36-.08,7.36-.08l8.13-21.65.36-30.08Z"/><path class="cls-13" d="M105.93,105.89s15.18,5.57,16.62,19.84c1,9.9-18.78,6.84-21.42,5C97.12,125.24,105.93,105.89,105.93,105.89Z"/><path class="cls-14" d="M78.68,117.58s17.8-14.86,15.55-20.32-3.05-3.8-3.05-3.8c-.16,7.75-20,21.38-20,21.38C71.31,116.94,77.75,112.16,78.68,117.58Z"/><path class="cls-15" d="M58.1,94.33a9.44,9.44,0,0,1,4.18-1.4c-5.07,2.37,8.85,21.91,8.85,21.91,0,1.74-4.46-3.35-7.25,2.74C63.89,117.58,53.44,102.87,58.1,94.33Z"/><path class="cls-2" d="M89.17,141.67c-1.31,11.44,4.8,25.24,4.72,26.55s-3.09,27.11-3.09,27.11l5.19-.06,5.59-24.81.2-30.52S90.47,130.23,89.17,141.67Z"/><path class="cls-3" d="M97.15,142.19s2.51,29.74,2.17,31.24S94.87,192.14,93.38,194c-3.45,4.25,7.6-.08,7.6-.08l8.4-22.36.37-31.08Z"/><path class="cls-16" d="M105.06,122.24S89.38,128,87.88,142.74c-1,10.23,19.41,7.06,22.13,5.19C114.15,142.23,105.06,122.24,105.06,122.24Z"/><path class="cls-17" d="M115.87,116.22s28.76-.72,31.36,2.58,25.59,13.24,27.71,26.45-6.25,57.49-11,57.74c-14.26.76-13.44,3.79-50.28-2.44-11.06-1.87-14.53-6.68-14.53-6.68-1-14.6-7.32-48.76,2.24-68.3C103.51,121.26,113.14,120.08,115.87,116.22Z"/><path class="cls-2" d="M116.24,102.48l.34,15.17,0,.75c-.49-.18-9,14.94,4.2,19.66a35.26,35.26,0,0,0,5.59.73c10.82-15.18,7-29.6,7-38.72Z"/><path class="cls-2" d="M146.15,110.25a86.15,86.15,0,0,1,1.08-9.13l-13.87-1a90.46,90.46,0,0,1-2.9,23.08A28.85,28.85,0,0,0,146.15,110.25Z"/><path class="cls-3" d="M146.17,106.13c-3.93,6.87-14.64,13.45-20.56,15.59a30.41,30.41,0,0,0,.78,17.06c11.72,1,19-14.27,20.83-20a5.67,5.67,0,0,1-.91-2.5A83.4,83.4,0,0,1,146.17,106.13Z"/><path class="cls-3" d="M133.5,57.3h-3.93S121,92.65,119,93.86c-3.23,1.93,2.77,7.53,2.77,7.53s-.25,0-.07,4.57c.1,2.57,5.06,3.88,4.24,9.7,8.93.76,22.19-2.87,27.73-20.48C160.25,74.19,151.66,58.24,133.5,57.3Z"/><path class="cls-6" d="M123.64,104.55A8,8,0,0,0,119.79,98l3.68-9.38a67.11,67.11,0,0,1,10-30.79c-29.67-1.53-27.73,52.75-12.17,57.51a22.29,22.29,0,0,0,4.59.85C126.74,110.4,123.74,107.12,123.64,104.55Z"/><path class="cls-7" d="M135.08,55.75c16.39,1.39,29.53,25.48,15.62,47-1.12,2.59,3-11.94.06-12.79-1.67-.48-7.41,1.79-7.16,5.68.2,3.06-4.16-2.26-4.16-2.26l-1.1-6.21c3.39-17.77-13.9-9.6-13.9-9.6s-11-7.68-13.35,3.27c-1.86,8.67-1.29,2-1.67,1.14C110,72,115,54,135.08,55.75Z"/><path class="cls-7" d="M143.25,59.9h2.35L148,57.09,146.63,61,150,58.29l-1.4,4,5.13,2.79h-5.13L158,73l-6.76-3.24,9.22,10.61-7.9-6.11,5.75,11.68-6.11-8.08,5.39,13.55-6.35-10.68-10.21-9.48-13.8-5.43L116.65,70l-5.9,5.57-2.88,10.76s3.06-11.12,0-15.25l3.52-1.8-4.17-2.51,6.75.54-6.47-5,11.32-2.16L114.2,59l9-2.74,6.73-.85"/><path class="cls-1" d="M144.36,155.93c1.87-.95,3-2.54,3.09-3.83s-1.82-3.36-2-3.51-.82-.15-2.16,0c-3.66.5-6.25,3.88-7,5.47s0,2.07,0,2.07l1.27-1.57c1.27-1.57,1.94-1.47,1.94-1.47l-.65,1.87c-.42,1.22-.9,1.69-1.57,1.77-.1.77.35,1.49.3,2-.3,1.42-2.26,4.45-2.51,5.35-.51,1.83,4.18,3.21,7.94,1.57,3.33-1.45,4.92-3.67,5.35-5.37h0C149.58,156.41,144.36,155.93,144.36,155.93Zm-.87-4.68a6.09,6.09,0,0,0,2,.12,3,3,0,0,1-.85,1.79,12.3,12.3,0,0,1-3.88,2.61l.27-1.42a2.37,2.37,0,0,0-.6-2.19A3.43,3.43,0,0,1,143.49,151.25Zm-3.85,7.09a3.77,3.77,0,0,1,1.13-.42,15.23,15.23,0,0,1,3.9-.08c1.45.26,1.91,1,2,2h0a2.17,2.17,0,0,1-.27,1,6.71,6.71,0,0,1-1.5,1.72h0a6.57,6.57,0,0,1-6.75,1.3h0a7.18,7.18,0,0,1-1-.54C137.84,161.71,139.64,158.35,139.64,158.35Z"/><path class="cls-2" d="M156.88,149.54c-1.31,11.44,4.8,25.24,4.72,26.55s-9.49,28-9.49,28l11.6-1,5.59-24.81.2-30.52S158.19,138.1,156.88,149.54Z"/><path class="cls-3" d="M164.87,149.54s2.51,29.74,2.17,31.24-4.45,18.72-5.94,20.56c-3.45,4.25,7.6-.08,7.6-.08l8.4-22.36.37-31.08Z"/><path class="cls-18" d="M161.64,129.59s15.68,5.75,17.17,20.5c1,10.23-19.41,7.06-22.13,5.19C152.55,149.59,161.64,129.59,161.64,129.59Z"/><path class="cls-19" d="M133.49,141.67s18.39-15.36,16.06-21-3.16-3.93-3.16-3.93c-.16,8-20.7,22.09-20.7,22.09C125.87,141,132.53,136.07,133.49,141.67Z"/><path class="cls-20" d="M112.23,117.65a9.75,9.75,0,0,1,4.32-1.45c-5.24,2.45,9.15,22.63,9.15,22.63,0,1.8-4.6-3.46-7.49,2.83C118.21,141.67,107.41,126.47,112.23,117.65Z"/></g></g></svg>