<svg id="Layer_1" data-name="Layer 1" xmlns="http://www.w3.org/2000/svg" viewBox="0 0 229 83.41"><defs><style>.cls-1{fill:#fff;}.cls-1,.cls-2{fill-rule:evenodd;}.cls-2{fill:#f8c300;}</style></defs><title>Artboard 5</title><path class="cls-1" d="M13.88,24.4c-1,1-1.43.71-1.37-.78,1.08-7.75,9.63-14.37,18.27-13.51C33,9.94,36,14.39,35.36,17.53c-.72,4.29-5.34,4.59-5.75,7-.11,1.81,8.74,1.4,7.72,8.21-2,9.07-12.71,12.28-18.67,12.21-4.72.06-9.37-2-8.21-4.2L15.94,30c.67-1.1-1.11-2.52-.45-3.63.65-1.34,2.45-1.52,3.17-3.39.2-1,.39-1.89.59-2.84-.24-1.19-1-.94-1.86-.49L13.88,24.4ZM174.52,41.21a2.2,2.2,0,1,1-2.15,2.2,2.18,2.18,0,0,1,2.15-2.2Zm-32.31-12.4c1.93-1.34,2-3.76,3.25-4,1,.15,2,2.25,2.74,2.45,1,0,2.86-2.7,5.57-2.64,6.74.35,5.91,17,1.88,20.24-1.72-3.41-1.9-6.68-.65-11.79.63-2.27.21-4.16-1.94-4.25-3.08.08-5.36,3.31-9.16,14.58-.07,1.72-1.24,1.59-1.84.8-1.6-1.89-1.76-6-1-7.5a14,14,0,0,0,1.14-7.88Zm-39.88-1a1.36,1.36,0,0,1,1.22-1.69c1.24.06.46,2.25,2.45,2.45,1,0,1.9-2.93,5.43-3.76,2.39-.54,2.93,1.29,1.92,2.07-3.06,2.52-6.45,5.27-7.2,6.84-1.22,2.43-1.84,7.19-1.68,10-.06,1.15-3.32,1.3-3.29-.24.37-5.93,1.71-11.91,1.15-15.67Zm27.39-3.69c1.19.33,2.47.2,2.44,1,.26,1.38,1.51,2.38,2.15,4.15a4.86,4.86,0,0,1-.16,3.15l-2.06,5.76c-1.89,5,7.47-.64,7.65,2.15.34,3.55-2.55,4.39-5.89,4.84-2.76.11-4-2.25-5-3.84-1.71,1.56-5.79,4.51-8.8,3.54-7-3,2.62-21.39,9.72-20.75ZM120.84,40.6c-.07-5.27,4.9-10.81,8.26-12.29.56,1.05,1.43,1.12,2.61,1.15,0,3.08-5.13,11.42-10.87,11.14Zm-2-21.9-.93-.69-.84-1.23V15.7l.16-1.23.46-.77.61-.76.84-.23.54.15.53.84.31.7.15.84v1.54l-.15.92-.31.54-.38.38ZM115.72,24c1.54.92,1.77,2.54,1.68,6-.43,8-1.94,9.37-2.91,14.06-.35,1.08-1.25.69-1.3-.23-.53-13.06,1.69-13.22,2.53-19.83ZM66.83,18.85l-.91-.69-.84-1.23V15.86l.15-1.23.46-.77.61-.77.84-.23.53.15.54.85.31.69.15.85v1.53l-.15.92-.31.54-.38.39ZM63.7,24.16c1.54.92,1.77,2.53,1.68,6-.43,8-1.94,9.38-2.91,14.07-.35,1.07-1.25.69-1.3-.23-.53-13.07,1.69-13.22,2.53-19.83Zm25.7-.08c1.2.33,2.48.2,2.45,1,.25,1.38,1.5,2.38,2.14,4.15a4.92,4.92,0,0,1-.15,3.15l-2.07,5.76c-1.89,5,7.47-.64,7.65,2.16.34,3.54-2.54,4.38-5.89,4.84-2.75.1-4-2.26-5-3.85-1.7,1.57-5.78,4.51-8.79,3.54-7-2.95,2.61-21.39,9.71-20.75ZM80.53,40.53c-.08-5.28,4.89-10.81,8.26-12.3.56,1.05,1.42,1.13,2.6,1.15,0,3.08-5.13,11.43-10.86,11.15ZM67.29,26.39c.18-2.06,1.41-1.55,2-.08a46.93,46.93,0,0,1,1.61,11.76c.11,1.16.46,1.12,1,0a70.5,70.5,0,0,1,6.35-12.38,1,1,0,0,1,1.61,1A99.05,99.05,0,0,1,72.72,43c-1.19,1.94-2.67,1.85-3.51-.39a46.5,46.5,0,0,1-1.92-16.21Zm-8.11-14c1,0,2.22,1.32,3,2.84.56,1.54-2.32,21.37-4.74,29.75-.64.53-2.89-3.31-2.84-4.77,2.54-12.88,3.94-27.59,4.59-27.82Zm100,18.81c1.55-5.39,3.78-4.34,5.05-5.22,1-.41,1.86-1.36,3.59-1.39,2.58,0,7.07,3,6.58,8.77a12.91,12.91,0,0,1-9.94,12.29c-4-2.35-5.59-11.09-5.28-14.45ZM164,40.59c4.86.84,10.87-7,6.27-11.53-4.46-.07-7,1.71-6.27,11.53ZM38.68,30.92c1.55-5.39,3.78-4.34,5-5.23,1.05-.41,1.86-1.35,3.6-1.38,2.57,0,7.06,3.05,6.57,8.76A12.91,12.91,0,0,1,44,45.37C40,43,38.38,34.28,38.68,30.92ZM43.5,40.3c4.87.84,10.87-7,6.28-11.53-4.47-.08-7,1.71-6.28,11.53ZM20.09,29.08c7.83-1.35,13.37-1.46,13.85,3.15-.2,6.06-10.63,11.19-16.83,7.84-1.38-.67-2-1-1.15-2.69ZM21.7,16.55a9.49,9.49,0,0,1,.76,7.22c3.07-.87,10-5.27,9.18-7.91-1.3-2.54-7.34-1.39-9.94.69Zm0,0"/><path class="cls-2" d="M206,5.06c.38-.57,1.06-.45.93.34a15.76,15.76,0,0,0-.15,4.86c.26,1.69-.71,1.65-.85.6-.36-2.49-.56-3.63-4.62-.32-.72.63-1.33,0-.84-.39A31,31,0,0,0,206,5.06ZM6.89,50.54l-2.18,4.6c76.13-3.64,145.18-5.25,185.11,1.45,10,3.09,18.67,5.52,16.69,13.55-.24,1,.84,1.06,1,.39,2-7.93-4.24-11.26-13.86-14.42C156.64,45.58,85.32,46.84,6.89,50.54ZM225,47.09q-18.23-8.91-7.42,27l-4.12-3c-7.36-21.22-1.65-33.8,11.54-24.07ZM178.33,48.9c4.47-2.89,6.25-7.76,4.12-15.49l2-3.8q6.18,14.27-6.1,19.29Zm25.72-35.11c-4,11.51-7.3,22.62,13.52,21.26-.5.83-1,1.82-1.49,2.64-18.56,1.86-22.27-6.41-12-23.9ZM183.77,24.17c5.33-1.13,11.32-2.44,17-11.54l3.3-2.8c-1.81,9.48-12,15.14-20.28,14.34Zm34.84,55.56c.33.6,1,.54,1-.25a15.26,15.26,0,0,1,.32-4.85c.42-1.66-.56-1.71-.79-.68-.61,2.44-.92,3.56-4.64-.12-.65-.7-1.32-.12-.86.3a31,31,0,0,1,5,5.6ZM179.49,23.8c-.2-.66.32-1.11.86-.52A15.25,15.25,0,0,0,184,26.45c1.48.86.83,1.59-.07,1-2.17-1.28-3.18-1.84-3.15,3.4,0,.95-.85,1-.83.4a30.87,30.87,0,0,0-.5-7.49Zm43.78,10c.6-.32.55-1-.25-1a15.39,15.39,0,0,1-4.85-.37c-1.65-.44-1.71.54-.69.78,2.44.63,3.56,1-.17,4.63-.7.65-.13,1.32.29.87a31.47,31.47,0,0,1,5.67-4.94Zm0,0"/><path class="cls-1" d="M41.31,58.13h.94l3,10.65,3.13-10.65h.88L45.69,70h-.93Zm11.42,7.54a2.86,2.86,0,0,0-1.82.5,1.71,1.71,0,0,0-.63,1.42,1.8,1.8,0,0,0,.37,1.19,1.19,1.19,0,0,0,1,.46,1.76,1.76,0,0,0,1.49-.75,3.36,3.36,0,0,0,.56-2v-.78Zm1.78-1.12V70h-.75V68.52a2.85,2.85,0,0,1-.95,1.18,2.17,2.17,0,0,1-1.29.4A2,2,0,0,1,50,69.44a3,3,0,0,1,.31-3.9,3.84,3.84,0,0,1,2.53-.75h.87v-.14a.86.86,0,0,0,0-.15,2.87,2.87,0,0,0-.42-1.66,1.33,1.33,0,0,0-1.16-.6,2.7,2.7,0,0,0-1,.18,3.39,3.39,0,0,0-1,.54v-1a4.16,4.16,0,0,1,1-.47,3.29,3.29,0,0,1,1-.16,2,2,0,0,1,1.73.82,4.29,4.29,0,0,1,.57,2.44Zm7.12-1.37a3.53,3.53,0,0,1,.93-1.39,1.92,1.92,0,0,1,1.27-.48,1.71,1.71,0,0,1,1.56.88,5.14,5.14,0,0,1,.52,2.6V70h-.85V65.05A4.77,4.77,0,0,0,64.72,63a1.12,1.12,0,0,0-1.06-.67,1.55,1.55,0,0,0-1.4.87,4.76,4.76,0,0,0-.51,2.4V70h-.84V65.05A4.8,4.8,0,0,0,60.57,63a1.11,1.11,0,0,0-1.06-.67,1.58,1.58,0,0,0-1.4.87,4.86,4.86,0,0,0-.51,2.4V70h-.85V61.48h.79v1.61a3.27,3.27,0,0,1,.89-1.33,2,2,0,0,1,1.26-.45,1.68,1.68,0,0,1,1.2.47,2.87,2.87,0,0,1,.74,1.4Zm9.08-1a1.83,1.83,0,0,0-1.6,1,4.76,4.76,0,0,0-.61,2.55,4.7,4.7,0,0,0,.62,2.55,1.81,1.81,0,0,0,3.21,0,5.72,5.72,0,0,0,0-5.14,1.84,1.84,0,0,0-1.62-1Zm0-.9A2.64,2.64,0,0,1,73,62.49a5.48,5.48,0,0,1,.85,3.24A5.57,5.57,0,0,1,73,69a2.73,2.73,0,0,1-4.54,0,5.65,5.65,0,0,1-.85-3.26,5.56,5.56,0,0,1,.85-3.24,2.64,2.64,0,0,1,2.27-1.2Zm8.27.38v1a3.4,3.4,0,0,0-.77-.32,3,3,0,0,0-.8-.11,1.49,1.49,0,0,0-1,.35,1.1,1.1,0,0,0-.38.89c0,.51.43,1,1.3,1.52l.19.11a4.47,4.47,0,0,1,1.42,1.18,2.29,2.29,0,0,1,.39,1.35,2.41,2.41,0,0,1-.67,1.78,2.37,2.37,0,0,1-1.78.67,4.67,4.67,0,0,1-.94-.1,3.3,3.3,0,0,1-.83-.31v-1a4.14,4.14,0,0,0,.86.4,2.83,2.83,0,0,0,.85.13A1.69,1.69,0,0,0,78,68.79a1.4,1.4,0,0,0,.44-1.05,1.51,1.51,0,0,0-.26-.92,4.61,4.61,0,0,0-1.29-1,4.39,4.39,0,0,1-1.38-1.13,2.11,2.11,0,0,1-.35-1.22A2,2,0,0,1,75.74,62a2.18,2.18,0,0,1,1.58-.59,4.94,4.94,0,0,1,.87.08,4.2,4.2,0,0,1,.79.22Zm6.59,6.86v5h-.85V61.48h.78v1.67a3.49,3.49,0,0,1,1-1.38,2.1,2.1,0,0,1,1.34-.48,2.24,2.24,0,0,1,2,1.17,5.87,5.87,0,0,1,.74,3.15,6.18,6.18,0,0,1-.76,3.27,2.34,2.34,0,0,1-2,1.21,2.07,2.07,0,0,1-1.25-.4,2.85,2.85,0,0,1-.91-1.16Zm4-2.85a5.23,5.23,0,0,0-.52-2.56,1.57,1.57,0,0,0-1.43-.91,1.74,1.74,0,0,0-1.52.94,4.83,4.83,0,0,0-.57,2.51,5.16,5.16,0,0,0,.55,2.62,1.7,1.7,0,0,0,1.53.94,1.6,1.6,0,0,0,1.42-1,5.26,5.26,0,0,0,.54-2.58Zm5.3-3.49a1.83,1.83,0,0,0-1.6,1,4.67,4.67,0,0,0-.61,2.55,4.79,4.79,0,0,0,.61,2.55,1.82,1.82,0,0,0,3.22,0,5.72,5.72,0,0,0,0-5.14,1.84,1.84,0,0,0-1.62-1Zm0-.9a2.64,2.64,0,0,1,2.27,1.2A5.48,5.48,0,0,1,98,65.73,5.57,5.57,0,0,1,97.18,69a2.73,2.73,0,0,1-4.54,0,5.65,5.65,0,0,1-.85-3.26,5.48,5.48,0,0,1,.85-3.24,2.64,2.64,0,0,1,2.27-1.2Zm8.09.12V62.5l-.26-.06a.82.82,0,0,0-.21,0,1.48,1.48,0,0,0-1.33.81,4.39,4.39,0,0,0-.48,2.24V70h-.85V61.48h.78v1.79a3.06,3.06,0,0,1,.76-1.41,1.56,1.56,0,0,1,1.16-.5h.2l.23,0Zm11.56-2.91v1.08a5.1,5.1,0,0,0-1.06-.39,3.72,3.72,0,0,0-1-.13,3.38,3.38,0,0,0-2.86,1.36,6,6,0,0,0-1,3.74,5.51,5.51,0,0,0,1,3.56A3.46,3.46,0,0,0,112.52,69a4.28,4.28,0,0,0,1-.12,3.5,3.5,0,0,0,1-.36v1.12a4.58,4.58,0,0,1-1,.28,7,7,0,0,1-1.18.09,4.16,4.16,0,0,1-3.42-1.59,6.73,6.73,0,0,1-1.27-4.28A6.82,6.82,0,0,1,109,59.74a4.3,4.3,0,0,1,3.54-1.65,6.36,6.36,0,0,1,1.11.1,3.55,3.55,0,0,1,.92.31Zm4,3.69a1.83,1.83,0,0,0-1.6,1,4.76,4.76,0,0,0-.61,2.55,4.7,4.7,0,0,0,.62,2.55,1.81,1.81,0,0,0,3.21,0,5.72,5.72,0,0,0,0-5.14,1.84,1.84,0,0,0-1.62-1Zm0-.9a2.67,2.67,0,0,1,2.28,1.2,6.67,6.67,0,0,1,0,6.5,2.73,2.73,0,0,1-4.54,0,5.65,5.65,0,0,1-.85-3.26,5.56,5.56,0,0,1,.85-3.24,2.64,2.64,0,0,1,2.27-1.2Zm4.88-4h.85V70h-.85Zm5.72,4.94a1.83,1.83,0,0,0-1.6,1,4.76,4.76,0,0,0-.61,2.55,4.7,4.7,0,0,0,.62,2.55,1.83,1.83,0,0,0,1.59,1,1.86,1.86,0,0,0,1.63-1,5.8,5.8,0,0,0,0-5.14,1.87,1.87,0,0,0-1.63-1Zm0-.9a2.64,2.64,0,0,1,2.27,1.2,5.56,5.56,0,0,1,.84,3.24,5.65,5.65,0,0,1-.84,3.26,2.73,2.73,0,0,1-4.54,0,6.6,6.6,0,0,1,0-6.5,2.67,2.67,0,0,1,2.28-1.2ZM139,63.18a3.43,3.43,0,0,1,.93-1.39,1.92,1.92,0,0,1,1.27-.48,1.69,1.69,0,0,1,1.55.88,5.13,5.13,0,0,1,.53,2.6V70h-.85V65.05a4.77,4.77,0,0,0-.34-2.09,1.12,1.12,0,0,0-1.06-.67,1.55,1.55,0,0,0-1.4.87,4.76,4.76,0,0,0-.51,2.4V70h-.84V65.05A4.8,4.8,0,0,0,138,63a1.12,1.12,0,0,0-1.06-.67,1.56,1.56,0,0,0-1.4.87,4.76,4.76,0,0,0-.51,2.4V70h-.85V61.48h.79v1.61a3.17,3.17,0,0,1,.89-1.33,2,2,0,0,1,1.26-.45,1.68,1.68,0,0,1,1.2.47,3,3,0,0,1,.74,1.4Zm9.44-1a1.72,1.72,0,0,0-1.54.94,5.22,5.22,0,0,0-.55,2.61,4.9,4.9,0,0,0,.57,2.52,1.71,1.71,0,0,0,1.49,1,1.59,1.59,0,0,0,1.42-.94,5.06,5.06,0,0,0,.54-2.53,5.55,5.55,0,0,0-.52-2.6,1.58,1.58,0,0,0-1.41-.95Zm-2.94-4.92h.85v5.64a3,3,0,0,1,.9-1.19,2.07,2.07,0,0,1,1.26-.41,2.29,2.29,0,0,1,2,1.18,5.77,5.77,0,0,1,.75,3.14,6.25,6.25,0,0,1-.75,3.25,2.18,2.18,0,0,1-1.91,1.24,2.11,2.11,0,0,1-1.36-.46,3.43,3.43,0,0,1-1-1.39V70h-.79Zm7.54,4.23h.85V70h-.85Zm-.07-4h1v1.38h-1Zm5.93,8.17a2.84,2.84,0,0,0-1.82.5,1.69,1.69,0,0,0-.64,1.42,1.8,1.8,0,0,0,.37,1.19,1.2,1.2,0,0,0,1,.46,1.74,1.74,0,0,0,1.49-.75,3.29,3.29,0,0,0,.56-2v-.78Zm1.78-1.12V70H160V68.52a2.93,2.93,0,0,1-1,1.18,2.17,2.17,0,0,1-1.29.4,2,2,0,0,1-1.56-.66,3,3,0,0,1,.32-3.9,3.82,3.82,0,0,1,2.53-.75h.86s0-.08,0-.14,0-.11,0-.15a3,3,0,0,0-.42-1.66,1.34,1.34,0,0,0-1.16-.6,2.76,2.76,0,0,0-1,.18,3.35,3.35,0,0,0-.94.54v-1a4,4,0,0,1,1-.47,3.27,3.27,0,0,1,1-.16,2,2,0,0,1,1.73.82,4.21,4.21,0,0,1,.58,2.44Zm0,0"/></svg>