<svg xmlns="http://www.w3.org/2000/svg" viewBox="0 0 22 22"><defs><style>.cls-1{fill:#fff;}</style></defs><title>Asset 3</title><g id="Layer_2" data-name="Layer 2"><g id="Capa_4" data-name="Capa 4"><path class="cls-1" d="M11,22A11,11,0,1,1,22,11,11,11,0,0,1,11,22ZM11,1.47A9.53,9.53,0,1,0,20.53,11,9.54,9.54,0,0,0,11,1.47Z"/><path class="cls-1" d="M9.78,16.13A6.49,6.49,0,0,1,3.71,12a.73.73,0,1,1,1.36-.54,5.06,5.06,0,0,0,9.41,0,.73.73,0,1,1,1.36.54A6.49,6.49,0,0,1,9.78,16.13Z"/><circle class="cls-1" cx="5.13" cy="8.07" r="2.2"/><circle class="cls-1" cx="13.93" cy="8.07" r="2.2"/></g></g></svg>