<?xml version="1.0" encoding="utf-8"?>
<!-- Generator: Adobe Illustrator 19.0.0, SVG Export Plug-In . SVG Version: 6.00 Build 0)  -->
<svg version="1.1" id="Capa_1" xmlns="http://www.w3.org/2000/svg" xmlns:xlink="http://www.w3.org/1999/xlink" x="0px" y="0px"
	 viewBox="0 0 46.5 28.4" style="enable-background:new 0 0 46.5 28.4;" xml:space="preserve">
<style type="text/css">
	.st0{fill:#FFFFFF;}
</style>
<g id="XMLID_15_">
	<path id="XMLID_20_" class="st0" d="M46.5,28.4c-7.4-0.8-15.2-1.3-23.3-1.3S7.4,27.6,0,28.4c0,0,5.2-3.4,23.3-3.4
		S46.5,28.4,46.5,28.4z"/>
	<g id="XMLID_16_">
		<path id="XMLID_19_" class="st0" d="M29.4,20c-0.5-1.4-2.1-1.6-4-1.5l1.9,5.2C29.3,22.6,29.8,21.2,29.4,20z"/>
		<path id="XMLID_18_" class="st0" d="M17.4,13.8c0.5,1.4,2,1.6,3.9,1.4l-2-5.2C17.4,11.1,17,12.5,17.4,13.8z"/>
		<path id="XMLID_17_" class="st0" d="M23.3,0C12.6,0,3.9,8.7,3.9,19.4c0,2.1,0.3,4.1,1,6c5.9-0.5,12.1-0.8,18.4-0.8
			c0.5,0,1.1,0,1.6,0l-2.2-5.7c-3.6,0.4-7.4,0.7-9-3.4c-1.1-3,0.1-6.4,4.5-8.6L17,3.5l2.4-0.9l1.2,3.3c2.2-0.7,4.7-0.9,6.6-0.4
			l-0.1,3.4c-1.9-0.3-3.7-0.2-5.3,0.2L24,15c3.6-0.4,7.5-0.7,9,3.3c0.8,2.1,0.4,4.4-1.5,6.4c3.4,0.1,6.8,0.4,10.1,0.7
			c0.6-1.9,1-3.9,1-6C42.6,8.7,34,0,23.3,0z"/>
	</g>
</g>
</svg>
