<svg id="Layer_1" data-name="Layer 1" xmlns="http://www.w3.org/2000/svg" xmlns:xlink="http://www.w3.org/1999/xlink" viewBox="0 0 166.74 158"><defs><style>.cls-1{fill:#f9c336;}.cls-2{font-size:29.05px;fill:#29357a;font-weight:700;letter-spacing:-0.03em;}.cls-3{letter-spacing:-0.02em;}.cls-10,.cls-11,.cls-12,.cls-13,.cls-14,.cls-15,.cls-16,.cls-17,.cls-18,.cls-19,.cls-31,.cls-32,.cls-33,.cls-34,.cls-35,.cls-36,.cls-4,.cls-5,.cls-6,.cls-7,.cls-8,.cls-9{fill-rule:evenodd;}.cls-4{fill:url(#Degradado_sin_nombre_2);}.cls-5{fill:url(#Degradado_sin_nombre_2-2);}.cls-6{fill:url(#Degradado_sin_nombre_2-3);}.cls-7{fill:url(#Degradado_sin_nombre_2-4);}.cls-8{fill:#e3e9e9;}.cls-9{fill:#515050;}.cls-10{fill:#9a9a9a;}.cls-11{fill:url(#Degradado_sin_nombre_388);}.cls-12{fill:url(#Degradado_sin_nombre_388-2);}.cls-13{fill:#383838;}.cls-15{fill:#1e1e1e;}.cls-16{fill:#fbb017;}.cls-17{fill:#3d5ba8;}.cls-18{fill:#ef4e3e;}.cls-19{fill:#fcb415;}.cls-20{fill:#2c2c31;}.cls-21{fill:url(#linear-gradient);}.cls-22{opacity:0.11;}.cls-23{fill:url(#Degradado_sin_nombre_388-3);}.cls-24{fill:#2d261e;}.cls-25{fill:#f2b58d;}.cls-26{fill:#fccfab;}.cls-27{fill:#fbbe94;}.cls-28{fill:#5e5e5e;}.cls-29{fill:url(#linear-gradient-2);}.cls-30{fill:url(#Degradado_sin_nombre_388-4);}.cls-31{fill:url(#Degradado_sin_nombre_2-5);}.cls-32{fill:url(#Degradado_sin_nombre_2-6);}.cls-33{fill:url(#Degradado_sin_nombre_2-7);}.cls-34{fill:url(#Degradado_sin_nombre_2-8);}.cls-35{fill:url(#Degradado_sin_nombre_388-5);}.cls-36{fill:url(#Degradado_sin_nombre_388-6);}.cls-37{fill:#640d0e;}.cls-38{fill:#8c181b;}.cls-39{fill:url(#Degradado_sin_nombre_388-7);}.cls-40{fill:url(#Degradado_sin_nombre_388-8);}</style><linearGradient id="Degradado_sin_nombre_2" x1="-1147.09" y1="42.8" x2="-1111.58" y2="58.67" gradientTransform="matrix(-1, 0, 0, 1, -1000.05, 0)" gradientUnits="userSpaceOnUse"><stop offset="0" stop-color="#3f5fab"/><stop offset="1" stop-color="#121245"/></linearGradient><linearGradient id="Degradado_sin_nombre_2-2" x1="-1129.36" y1="74.41" x2="-996.53" y2="88.67" xlink:href="#Degradado_sin_nombre_2"/><linearGradient id="Degradado_sin_nombre_2-3" x1="-1152.33" y1="63.43" x2="-1025.52" y2="89.6" xlink:href="#Degradado_sin_nombre_2"/><linearGradient id="Degradado_sin_nombre_2-4" x1="-1101.2" y1="78.3" x2="-1013.52" y2="87.71" xlink:href="#Degradado_sin_nombre_2"/><linearGradient id="Degradado_sin_nombre_388" x1="-1092.99" y1="76.44" x2="-983.14" y2="129.14" gradientTransform="matrix(-1, 0, 0, 1, -1000.05, 0)" gradientUnits="userSpaceOnUse"><stop offset="0" stop-color="#3f5fab"/><stop offset="1" stop-color="#121245"/></linearGradient><linearGradient id="Degradado_sin_nombre_388-2" x1="-1101.85" y1="72.6" x2="-957.03" y2="142.07" xlink:href="#Degradado_sin_nombre_388"/><linearGradient id="linear-gradient" x1="28.4" y1="39.18" x2="50.94" y2="82.05" gradientUnits="userSpaceOnUse"><stop offset="0" stop-color="#f8c335"/><stop offset="1" stop-color="#f8a01e"/></linearGradient><linearGradient id="Degradado_sin_nombre_388-3" x1="27.08" y1="55.35" x2="81.6" y2="105.48" gradientTransform="matrix(1, 0, 0, 1, 0, 0)" xlink:href="#Degradado_sin_nombre_388"/><linearGradient id="linear-gradient-2" x1="62.47" y1="63.85" x2="132.23" y2="128" xlink:href="#linear-gradient"/><linearGradient id="Degradado_sin_nombre_388-4" x1="52.36" y1="60.73" x2="165.31" y2="164.61" gradientTransform="matrix(1, 0, 0, 1, 0, 0)" xlink:href="#Degradado_sin_nombre_388"/><linearGradient id="Degradado_sin_nombre_2-5" x1="-1190.16" y1="52.3" x2="-1158.58" y2="66.41" xlink:href="#Degradado_sin_nombre_2"/><linearGradient id="Degradado_sin_nombre_2-6" x1="-1177.5" y1="79.27" x2="-1045.13" y2="93.48" xlink:href="#Degradado_sin_nombre_2"/><linearGradient id="Degradado_sin_nombre_2-7" x1="-1211.57" y1="67.3" x2="-1072.38" y2="96.02" xlink:href="#Degradado_sin_nombre_2"/><linearGradient id="Degradado_sin_nombre_2-8" x1="-1160.43" y1="82.81" x2="-1054.77" y2="94.15" xlink:href="#Degradado_sin_nombre_2"/><linearGradient id="Degradado_sin_nombre_388-5" x1="-1137.54" y1="85.57" x2="-1064.38" y2="120.66" xlink:href="#Degradado_sin_nombre_388"/><linearGradient id="Degradado_sin_nombre_388-6" x1="-1149.62" y1="79.07" x2="-1032.87" y2="135.07" xlink:href="#Degradado_sin_nombre_388"/><linearGradient id="Degradado_sin_nombre_388-7" x1="102.82" y1="64.33" x2="215.78" y2="168.2" gradientTransform="matrix(1, 0, 0, 1, 0, 0)" xlink:href="#Degradado_sin_nombre_388"/><linearGradient id="Degradado_sin_nombre_388-8" x1="316.35" y1="40.97" x2="370.75" y2="91" gradientTransform="matrix(0.99, -0.14, 0.14, 0.99, -249.93, 72.39)" xlink:href="#Degradado_sin_nombre_388"/></defs><title>Artboard 1</title><rect class="cls-1" x="4.32" y="140.03" width="158.1" height="2.18" rx="0.76" ry="0.76"/><path class="cls-4" d="M46.34,51.3c7.16-1.23,5,4.37,11.79-.57l.28-.16.31-.12.35-.09.39,0h.41l.46,0a4.34,4.34,0,0,0,.53.05l.55.1c9.06,1.6,12-.1,20.76,1.62l.26.07.27.08.27.09.26.09.26.11.26.12.26.13.25.14.25.14.24.15.24.16.24.17.23.17.22.17.21.19.21.18.2.19.2.2.19.2.17.2.17.2.16.2.14.21.15.2.12.21.12.21.1.2.09.21.08.2.07.2,0,.21,0,.19c1.18,7.43,1.9,11.85,1.19,24.13-.1,1.78-.16,2.68-.3,4.5-.45,5.79-.78,8.79-1.31,14.66,0,.26,0,.39-.08.65l-.13.6-.17.54-.21.48-.25.43-.28.37-.3.3-.34.23C79,108.44,71.69,113,68.54,114.69l.07-.06.07-.11,0-.13v-.17C68,98.38,64.26,82.63,64.91,66.73v-.2c0-.07,0-.11,0-.19s0-.12,0-.19l0-.19a1.39,1.39,0,0,0-.06-.19l-.07-.18a1.51,1.51,0,0,0-.09-.18.91.91,0,0,0-.09-.17,1,1,0,0,0-.11-.17,1.77,1.77,0,0,0-.12-.17l-.12-.16L64,64.59l-.15-.15a1.07,1.07,0,0,0-.16-.14l-.16-.14L63.35,64l-.19-.13L63,63.79l-.2-.11-.21-.11-.21-.1-.22-.09-.23-.08-.24-.08-.24-.07-.24-.07L60.93,63,60.67,63l-.26,0-.24,0-.25,0-.24,0c-7.79-.48-5.2-2.48-11.42-9.7l-.38-.44-.39-.37c-.15-.13-.23-.19-.39-.31l-.39-.25a3.35,3.35,0,0,0-.38-.18L46,51.49l-.35-.05-.33,0C45.73,51.39,45.94,51.35,46.34,51.3Z"/><path class="cls-5" d="M50.39,51.42c2.94.49,3,2.89,7.74-.69l.28-.16.31-.12.35-.09.39,0h.41l.46,0a4.34,4.34,0,0,0,.53.05l.55.1c9.06,1.6,12-.1,20.76,1.62l.26.07.27.08.27.09.26.09.26.11.26.12.26.13.25.14.25.14.24.15.24.16.24.17.23.17.22.17.21.19.21.18.2.19.2.2.19.2.17.2.17.2.16.2.14.21.15.2.12.21.12.21.1.2.09.21.08.2.07.2,0,.21,0,.19c1.18,7.43,1.9,11.85,1.19,24.13-.1,1.78-.16,2.68-.3,4.5-.45,5.79-.78,8.79-1.31,14.66,0,.26,0,.39-.08.65l-.13.6-.17.54-.21.48-.25.43-.28.37-.3.3-.34.23c-6.94,4.06-9.85,6.31-12.52,7.69l.07-.06,0-.1,0-.13v-.17c-.61-15.74-1.87-31.42-1.9-47.18l0-.18c0-.07,0-.1,0-.18l0-.17-.05-.18-.07-.17-.08-.17-.09-.17-.1-.16-.12-.16L71,62.73l-.14-.15-.14-.14-.16-.15-.16-.13L70.22,62,70,61.9l-.19-.12-.2-.11-.2-.11-.21-.1L69,61.37l-.22-.09-.23-.08-.24-.08-.23-.06L67.85,61l-.25-.06-.25,0-.26,0-.26,0-.27,0-.26,0c-8.78-.39-10.91.28-14.77-7.31L51.3,53c-.1-.16-.14-.25-.24-.41l-.23-.37-.23-.31-.22-.25-.21-.19-.2-.13-.19-.06A5,5,0,0,1,50.39,51.42Z"/><path class="cls-6" d="M45.83,98.16c0-14.87-.19-29.38-1.77-44.19-.32-2.94,2.16-3.28,4.2-.81,6.22,7.22,3.63,9.22,11.42,9.7,2.55.19,5.24,1.77,5.23,3.87-.65,15.9,3.07,31.65,3.81,47.49,0,.49-.29.61-.66.36-7.24-4.82-13.64-10.91-21.46-15.25A1.54,1.54,0,0,1,45.83,98.16Z"/><path class="cls-7" d="M46.34,51.3a10.85,10.85,0,0,1,2.59-.11l.21.05.23.11.24.18a2.72,2.72,0,0,1,.24.24,3.31,3.31,0,0,1,.25.3l.26.35.26.42c.1.18.15.27.26.45,4.18,7.6,5,7.59,13.84,8l.27,0,.27,0,.26,0,.26,0,.25.05.25,0,.25.06.24.07.23.07.23.08.22.09.22.09.21.1.2.11.19.11.19.12.18.12.17.13.16.14.16.14.14.15.13.15.13.15a.91.91,0,0,0,.11.16l.1.17a1.4,1.4,0,0,0,.09.17c0,.06,0,.1.07.17l.07.17,0,.18a1,1,0,0,1,0,.18c0,.07,0,.1,0,.18V65c.17,6.82.18,15.2,1.1,27.11.14,1.72.2,2.59.34,4.31.42,5.5.65,8.26.88,13.66,0,.24,0,.36,0,.6s0,.31,0,.53,0,.28-.08.47-.06.25-.11.41a3.84,3.84,0,0,0-.14.36,2.82,2.82,0,0,0-.18.29l-.22.23-.24.16a30,30,0,0,0-2.88,1.58l.07-.06.07-.11,0-.13v-.17C68,98.38,64.26,82.63,64.91,66.73v-.2c0-.07,0-.11,0-.19s0-.12,0-.19l0-.19a1.39,1.39,0,0,0-.06-.19l-.07-.18a1.51,1.51,0,0,0-.09-.18.91.91,0,0,0-.09-.17,1,1,0,0,0-.11-.17,1.77,1.77,0,0,0-.12-.17l-.12-.16L64,64.59l-.15-.15a1.07,1.07,0,0,0-.16-.14l-.16-.14L63.35,64l-.19-.13L63,63.79l-.2-.11-.21-.11-.21-.1-.22-.09-.23-.08-.24-.08-.24-.07-.24-.07L60.93,63,60.67,63l-.26,0-.24,0-.25,0-.24,0c-7.79-.48-5.2-2.48-11.42-9.7l-.38-.44-.39-.37c-.15-.13-.23-.19-.39-.31l-.39-.25a3.35,3.35,0,0,0-.38-.18L46,51.49l-.35-.05-.33,0C45.73,51.39,45.94,51.35,46.34,51.3Z"/><path class="cls-8" d="M69.81,57.85a58.27,58.27,0,0,0,6-3.36c0-.15-.15-.31-.41-.35-1.33-.21-4.56-.6-5.82-.69,0,0,0,0,0,0l1.21-.81c0-.14-.15-.41-.3-.52a.86.86,0,0,0-.56-.12,2,2,0,0,0-.68.22c-2.39,1.06-3.61,1.6-6.2,2.52-.61.24-.59.54-.59.54a17.18,17.18,0,0,1-2.89,3.29s-.19.18.45.27a5,5,0,0,0,1.77-.42c.57-.25.85-.38,1.4-.65h.06c1.37,0,4.69.14,6,.24C69.51,58,69.77,58,69.81,57.85Z"/><path class="cls-9" d="M83.08,104.89c-1.38,2-2,3-3.19,4.92-.89-.21-1.32-.32-2.17-.56.59-.89.89-1.34,1.53-2.26C80.69,106.22,81.45,105.81,83.08,104.89Z"/><path class="cls-10" d="M84,104.18c-.1,1.42-.15,2.12-.23,3.52-1.64.94-2.4,1.35-3.83,2.11,0-1.37.06-2.06.11-3.45C81.48,105.57,82.26,105.14,84,104.18Z"/><path class="cls-11" d="M63.41,64.07c2-.61,3.09-.92,5.11-1.59l.12.08.17.13.16.14.16.14.14.15.13.15.13.15a.91.91,0,0,0,.11.16l.1.17a1.4,1.4,0,0,0,.09.17c0,.06,0,.1.07.17l.07.17,0,.18a1,1,0,0,1,0,.18c0,.07,0,.1,0,.18V65c.17,6.82.18,15.2,1.1,27.11.14,1.72.2,2.59.34,4.31.42,5.5.65,8.26.88,13.66,0,.24,0,.36,0,.6s0,.31,0,.53,0,.28-.08.47-.06.25-.11.41a3.84,3.84,0,0,0-.14.36,2.82,2.82,0,0,0-.18.29l-.22.23-.24.16a30,30,0,0,0-2.88,1.58l.07-.06.07-.11,0-.13c0-.07,0-.11,0-.18C68,98.38,64.26,82.62,64.91,66.73v-.2c0-.07,0-.11,0-.19s0-.12,0-.19l0-.19a1.39,1.39,0,0,0-.06-.19l-.07-.18a1.51,1.51,0,0,0-.09-.18.91.91,0,0,0-.09-.17,1,1,0,0,0-.11-.17,1.77,1.77,0,0,0-.12-.17l-.12-.16L64,64.59l-.15-.15a1.07,1.07,0,0,0-.16-.14l-.16-.14A1.25,1.25,0,0,1,63.41,64.07Z"/><path class="cls-12" d="M70.09,61.94c6.76-2.52,9.67-4.48,16.08-7.62l.13.13.2.2.19.2.17.2.17.2.16.2.14.21.15.2.12.21.12.21.1.2.09.21.08.2.07.2,0,.21,0,.19c1.18,7.43,1.9,11.85,1.19,24.13-.1,1.78-.16,2.68-.3,4.5-.45,5.79-.78,8.79-1.31,14.66,0,.26,0,.39-.08.65l-.13.6-.17.54-.21.48-.25.43-.28.37-.3.3-.34.23c-6.94,4.06-9.85,6.31-12.52,7.69l.07-.06,0-.1,0-.13v-.17c-.61-15.74-1.87-31.42-1.9-47.18,0-.07,0-.11,0-.18s0-.1,0-.17l0-.18-.05-.18-.07-.17a1.3,1.3,0,0,0-.08-.17,1.4,1.4,0,0,0-.09-.17l-.1-.16-.12-.16L71,62.73l-.14-.15-.14-.14-.16-.15-.16-.13L70.22,62Z"/><path class="cls-13" d="M65.41,59.26c.68-.29,1-.44,1.69-.76,0-.59,0-.89,0-1.57v-.17l0-.08,0-.09,0-.08,0-.08,0-.08,0-.08-.07-.08-.06-.08L66.6,56,66.52,56l-.09-.07-.09-.07-.09-.06-.11-.07-.1-.06-.11-.06-.12,0-.12-.06-.13-.05-.12,0-.14,0-.13,0-.14,0-.15,0-.14,0-.15,0-.16,0H64c-2.46,0-4,.09-5.89-1l-.23-.14a1.67,1.67,0,0,1-.23-.12l-.22-.09-.19-.07-.19,0-.17,0h-.16l-.14,0a5.28,5.28,0,0,1-1,.22h.13l.13,0,.15.06.16.08.18.1.18.13.2.15.2.17c1.62,1.4,2.85,1.66,5.38,1.68h.48l.16,0,.15,0,.15,0,.15,0,.14,0,.14,0,.14,0,.13,0,.13.05.12,0,.12.06.11.05.11,0,.1.06.1.06.09.06.09.07.08.06.08.07.07.07.06.07.06.07,0,.07,0,.08,0,.07,0,.08,0,.07,0,.08v.08C65.4,58.45,65.4,58.73,65.41,59.26Z"/><path class="cls-14" d="M56.27,58a8.48,8.48,0,0,0,1.1-.19V56l0-.06,0-.06,0,0,0,0,0,0,.06,0a7.14,7.14,0,0,1-1.15.31h0l0,0,0,0,0,0,0,.05,0,.06v.14C56.26,57.1,56.27,57.42,56.27,58Z"/><path class="cls-15" d="M63.18,58V59.3l2.23,0c0-.53,0-.81,0-1.42,0-.83-1.38-1.62-3.15-1.63-2.53,0-3.76-.28-5.38-1.68-1.13-1-1.82-.94-1.81.28,0,.91,0,1.32,0,2.07A6.19,6.19,0,0,0,56.27,58c0-.6,0-.92,0-1.65,0-.42.33-.47.77-.15,1.52,1.06,2.61,1.28,4.92,1.24C62.64,57.45,63.18,57.72,63.18,58Z"/><path class="cls-14" d="M66.12,55.68h0l.11.07.09.06.09.07.09.07.08.08.08.07.06.08.07.08,0,.08,0,.08,0,.08,0,.08,0,.09,0,.08v.17c0,.68,0,1,0,1.57-.67.32-1,.47-1.69.76,0-.53,0-.81,0-1.42v-.16l0-.07,0-.08,0-.07,0-.08,0-.07-.06-.07-.06-.07L65,57.1,64.93,57,64.85,57l-.09-.07-.09-.06-.1-.06-.1-.06h0C65.12,56.32,65.46,56.11,66.12,55.68Z"/><path class="cls-8" d="M86.68,71.81c-4.13,1.73-6.4,2.64-10.71,4.3,0-3.72,0-5.71-.11-8.53,4.24-1.33,6.29-2,10.3-3.31A72.72,72.72,0,0,1,86.68,71.81Z"/><path class="cls-16" d="M85.41,63.57c-4,1.3-6,2-10.27,3.26,0,.58,0,.88,0,1.52.57.35.86.54,1.44.92A.89.89,0,0,0,77.75,69c.91-1,1.36-1.5,2.23-2.43A.93.93,0,0,1,81,66.26c1.28.63,1.93,1,3.2,1.67a.88.88,0,0,0,1.1-.36l.42-.54C85.64,65.55,85.57,64.87,85.41,63.57Z"/><path class="cls-17" d="M81.34,95.71c.17-3.46.26-5.2.42-8.63-1.15.56-1.72.82-2.83,1.34-.07,3.41-.11,5.13-.18,8.55C79.76,96.49,80.27,96.24,81.34,95.71Z"/><path class="cls-18" d="M81.34,95.71c.17-3.46.26-5.2.42-8.63,1.15-.56,1.74-.84,2.92-1.44-.21,3.44-.34,5.19-.6,8.69C83,94.91,82.4,95.19,81.34,95.71Z"/><path class="cls-19" d="M76.3,98.14c0-3.38,0-5.08-.08-8.45l2.71-1.27c-.07,3.41-.11,5.13-.18,8.55Z"/><path class="cls-20" d="M59.53,15.12C74.2,25.55,75.15,41.17,72.87,52.38,70.2,65.55,70.79,63.65,78.09,65.6c0,0-5.68,3.6-13.7-3.91S42.52,72.17,49,32C53.42,15.16,59.53,15.12,59.53,15.12Z"/><path class="cls-21" d="M68.7,59.79h0a5.44,5.44,0,0,1-.56-.42,22.89,22.89,0,0,1-4-3.25c-1.24-1.84-11.77-5.57-16.66-7.22l-1.08-.36c-4.66-1-8.61,2-11.48,8.13h0C31,63.7,29.79,77.38,30.22,78c-.11,1.47-.2,3-.26,4.55,0,1.39-.05,2.77-.07,4.13h0c-.07,4.14-1.54,10.79.27,14.63,5.08,10.8,20.73,16.2,34.48,17.34a33.42,33.42,0,0,0,5.86.16c.32,0,.68-.07,1.08-.1h0C83,118.13,80.31,67.31,68.7,59.79Z"/><path class="cls-22" d="M47.45,48.89l-1.08-.36c-4.66-1-8.61,2-11.48,8.13h0C31,63.7,29.79,77.38,30.22,78c-.11,1.47-.2,3-.26,4.55,0,1.39-.05,2.77-.07,4.13h0c-.07,4.14-1.54,10.79.27,14.63,3,6.45,8.91,10,17.23,13.28.18-38.14,7.27-54.43,12.22-61.15C55.79,51.77,50.51,49.93,47.45,48.89Z"/><path class="cls-23" d="M44.73,53.66s-13.14-.24-14.37,27.43l.26-3.55a34.9,34.9,0,0,1,12-30.63A60.51,60.51,0,0,1,44.73,53.66Z"/><path class="cls-24" d="M40.23,52.1a3.24,3.24,0,0,1,.35-1.05C40.48,51.36,40.36,51.73,40.23,52.1Z"/><path class="cls-20" d="M37,33.14c-1.41-14.88,7.66-21.46,16.77-21,8.8.49-2.08,40.59-10.12,40.6s-9.54-4.21-9.54-4.21S38.24,46.22,37,33.14Z"/><path class="cls-25" d="M51.41,60.74,56.92,45l-12.77.77.55,6.66a19.35,19.35,0,0,0-1.38,3.23C44.27,57.81,46.46,60.4,51.41,60.74Z"/><path class="cls-25" d="M43.32,55.66c-2,5.6-4.68,16.74,3,19.4l.09,0,5-14.34C46.46,60.4,44.27,57.81,43.32,55.66Z"/><path class="cls-26" d="M63,50.85S53.3,58,51.41,60.74s-5,14.34-5,14.34c10.32,3.5,18.74-11,19.92-15.68C65.75,59,63,50.85,63,50.85Z"/><path class="cls-25" d="M63,50.85c-2.25-4.14.24-6.23.24-6.23L56.92,45,51.41,60.74C54.61,61,62.39,53,63,50.85Z"/><path class="cls-27" d="M54.25,14.21c-22.18.18-18.3,40.53-6.49,43.38a15.37,15.37,0,0,0,2.1.34l7-43.59A21.57,21.57,0,0,0,54.25,14.21Z"/><path class="cls-26" d="M56.82,14.34c-5.13,5.43-7.87,13.51-9,21.26-.29,1.91-2.47,8.44-3.49,10-.13.21,2.81.4,2.8,1.44,0,5.93,1.33,10.31,2.78,10.93,3.89,1.69,14.64-2.11,18.21-16.41C71.78,26.63,56.82,14.34,56.82,14.34Z"/><path class="cls-20" d="M54.8,12c18.55.17,19.47,16.34,19.61,18.61.47,7.52-2.06,14-4.92,16.2-2,1.62-.74-10.24-.74-10.24s-11.93,3.24-25.54-7.76a10.09,10.09,0,0,0-5,8.17C33.84,28.35,39.75,11.89,54.8,12Z"/><path class="cls-28" d="M54.42,12.65s20.11.44,16.31,19.1C69.46,14.94,54.42,12.65,54.42,12.65Z"/><path class="cls-28" d="M52.15,12.88s20.11.44,16.31,19.1C67.19,15.17,52.15,12.88,52.15,12.88Z"/><path class="cls-28" d="M49.52,12.88s20.11.44,16.3,19.1C64.55,15.17,49.52,12.88,49.52,12.88Z"/><path class="cls-25" d="M70.94,76.77c-.63,8.74,2.32,19.3,2.28,20.3s-4.58,21.41-4.58,21.41l5.59-.73,2.7-19L77,75.45S71.57,68,70.94,76.77Z"/><path class="cls-26" d="M75,76.77s1.21,22.74,1,23.88S73.93,115,73.21,116.37c-1.67,3.25,3.66-.06,3.66-.06l4.06-17.1.18-23.76Z"/><path class="cls-29" d="M73,62.77s7.56,4.4,8.28,15.67c.51,7.82-10.67,4-10.67,4Z"/><path class="cls-30" d="M74.85,63.12s-13.94,17.61-2,31.64l0,4.43s-20-7.53-4.13-39.4C68.7,59.79,74.82,56.48,74.85,63.12Z"/><path class="cls-31" d="M94.8,56.68c7.16-1.23,5,4.37,11.79-.57l.28-.16.31-.12.35-.09.38,0,.42,0,.46,0a4.17,4.17,0,0,0,.52,0l.56.1c9.06,1.6,12-.1,20.75,1.62l.27.07.27.08.27.08.26.1.26.11.26.12.26.13.25.14.25.14.24.15.24.16.24.17.22.17.23.17.21.19.21.18.2.19.2.2.18.2.18.19.17.21.16.2.14.21.14.2.13.21.12.21.1.2.09.21.08.2.07.2,0,.21,0,.19c1.18,7.43,1.22,12.75,1.57,23.62,0,1.57.08,2.35.15,3.89.23,4.9.39,7.24.66,12.06V103l-.05.5-.1.45c-.06.16-.09.24-.14.4s-.12.21-.19.36l-.22.31-.26.27a3.06,3.06,0,0,0-.29.21c-6.08,3.77-9.65,11.93-12.34,14.27l.07-.09,0-.11c0-.06,0-.09,0-.15v-.17c-2.2-15.9-14.11-30.62-12.18-47.11v-.2c0-.07,0-.11,0-.19s0-.12,0-.19l0-.19c0-.08,0-.11-.06-.19l-.07-.18-.09-.18a1.51,1.51,0,0,0-.09-.18,1.53,1.53,0,0,0-.11-.16l-.12-.17-.12-.16-.14-.15-.15-.15a1.07,1.07,0,0,0-.16-.14l-.16-.14-.18-.13-.19-.13-.19-.11-.2-.11L111,69l-.21-.1-.22-.09-.23-.08-.24-.08-.24-.07-.24-.07-.25-.06-.26-.05-.26,0-.24,0-.25,0-.24,0c-7.79-.47-5.2-2.47-11.42-9.69l-.38-.44L96,57.73l-.39-.31-.39-.25L94.79,57l-.36-.11-.35,0-.33,0C94.19,56.77,94.4,56.73,94.8,56.68Z"/><path class="cls-32" d="M98.85,56.8c2.94.49,3,2.88,7.74-.69l.28-.16.31-.12.35-.09.38,0,.42,0,.46,0a4.17,4.17,0,0,0,.52,0l.56.1c9.06,1.6,12-.1,20.75,1.62l.27.07.27.08.27.08.26.1.26.11.26.12.26.13.25.14.25.14.24.15.24.16.24.17.22.17.23.17.21.19.21.18.2.19.2.2.18.2.18.19.17.21.16.2.14.21.14.2.13.21.12.21.1.2.09.21.08.2.07.2,0,.21,0,.19c1.18,7.43,1.22,12.75,1.57,23.62,0,1.57.08,2.35.15,3.89.23,4.9.39,7.24.66,12.06V103l-.05.5-.1.45c-.06.16-.09.24-.14.4s-.12.21-.19.36l-.22.31-.26.27a3.06,3.06,0,0,0-.29.21c-6.08,3.77-7.1,7.7-8.77,10.11l0-.08,0-.12v-.15a1,1,0,0,1,0-.17c-3.59-14.92-9.85-29.63-8.86-45.25l0-.18c0-.07,0-.1,0-.18l0-.17,0-.18-.07-.17-.08-.17a1.4,1.4,0,0,1-.09-.17l-.1-.16-.12-.16-.12-.16-.14-.15-.15-.15-.15-.14-.16-.13-.17-.13-.18-.13-.2-.12-.19-.11-.21-.11-.2-.1-.22-.1-.22-.08-.23-.08-.24-.08-.24-.07-.24-.06-.25-.05-.25,0-.26,0-.26,0-.27,0-.26,0c-8.79-.38-10.92.29-14.77-7.3l-.24-.46c-.09-.16-.13-.25-.23-.42l-.23-.36-.23-.31-.22-.25-.21-.19-.2-.13-.19-.06A5,5,0,0,1,98.85,56.8Z"/><path class="cls-33" d="M94.29,103.54c0-14.88-.19-29.38-1.77-44.19-.32-2.94,2.16-3.28,4.2-.81,6.22,7.22,3.63,9.22,11.42,9.69,2.55.2,5.24,1.78,5.23,3.88-1.93,16.49,10,31.21,12.18,47.11,0,.5-.23.7-.56.49-9.15-5.94-19.91-10-29.91-15A1.49,1.49,0,0,1,94.29,103.54Z"/><path class="cls-34" d="M94.8,56.68a10.84,10.84,0,0,1,2.59-.11l.21,0,.23.11.23.18a2.83,2.83,0,0,1,.25.24l.25.3.26.35c.1.17.16.25.26.41l.25.46c4.19,7.6,5,7.59,13.85,8l.27,0,.27,0,.26,0,.26,0,.25,0,.25.06L115,67l.24.07.24.07.23.08.22.09.22.09.21.1.2.11.19.11.19.12.18.12.17.13.16.14.16.14.14.15.13.15a1.58,1.58,0,0,1,.12.15l.12.16.1.17.09.17c0,.06,0,.1.07.17l.07.17,0,.18c0,.07,0,.1,0,.17s0,.11,0,.18v.19c.17,6.82.41,15.23,4.35,26.47.57,1.62.87,2.44,1.44,4.07,1.81,5.19,2.78,7.78,3.67,13.07,0,.23,0,.35.09.59s0,.32,0,.54v.5c0,.18,0,.27,0,.45s0,.25-.07.41l-.1.36c-.05.12-.08.18-.14.3l-.16.25c-3.59,4.46.46,0-2.23,2.37l.07-.09,0-.11c0-.06,0-.09,0-.15v-.17c-2.2-15.9-14.11-30.62-12.18-47.11v-.2c0-.07,0-.11,0-.19s0-.12,0-.19l0-.19c0-.08,0-.11-.06-.19l-.07-.18-.09-.18a1.51,1.51,0,0,0-.09-.18,1.53,1.53,0,0,0-.11-.16l-.12-.17-.12-.16-.14-.15-.15-.15a1.07,1.07,0,0,0-.16-.14l-.16-.14-.18-.13-.19-.13-.19-.11-.2-.11L111,69l-.21-.1-.22-.09-.23-.08-.24-.08-.24-.07-.24-.07-.25-.06-.26-.05-.26,0-.24,0-.25,0-.24,0c-7.79-.47-5.2-2.47-11.42-9.69l-.38-.44L96,57.73l-.39-.31-.39-.25L94.79,57l-.36-.11-.35,0-.33,0C94.19,56.77,94.4,56.73,94.8,56.68Z"/><path class="cls-8" d="M118.27,63.23a60.23,60.23,0,0,0,6-3.36c0-.15-.15-.31-.41-.35-1.34-.21-4.56-.6-5.82-.69,0,0,0,0,0,0L119.2,58c0-.14-.15-.41-.3-.52a.86.86,0,0,0-.56-.12,2,2,0,0,0-.68.22c-2.39,1.06-3.61,1.6-6.2,2.52-.61.24-.59.53-.59.53A17,17,0,0,1,108,64s-.19.18.45.27a5,5,0,0,0,1.77-.42c.56-.25.84-.38,1.4-.65h.06c1.37,0,4.69.14,6,.23C118,63.41,118.23,63.34,118.27,63.23Z"/><path class="cls-9" d="M135.18,106.17a35.31,35.31,0,0,0-2,4.94c-.69,0-1,.09-1.63.15.3-1,.47-1.51.82-2.5A19.41,19.41,0,0,1,135.18,106.17Z"/><path class="cls-10" d="M135.85,105.47c.09,1.2.14,1.8.21,3a18.25,18.25,0,0,0-2.9,2.63c-.11-1.25-.17-1.86-.32-3.09A19.55,19.55,0,0,1,135.85,105.47Z"/><path class="cls-35" d="M111.86,69.45c2.06-.61,3.09-.92,5.12-1.59l.12.08.17.13.16.14.16.14.14.15.13.15a1.58,1.58,0,0,1,.12.15l.12.16.1.17.09.17c0,.06,0,.1.07.17l.07.17,0,.18c0,.07,0,.1,0,.17s0,.11,0,.18v.19c.17,6.82.41,15.23,4.35,26.47.57,1.62.87,2.44,1.44,4.07,1.81,5.19,2.78,7.78,3.67,13.07,0,.23,0,.35.09.59s0,.32,0,.54v.5c0,.18,0,.27,0,.45s0,.25-.07.41l-.1.36c-.05.12-.08.18-.14.3l-.16.25c-3.59,4.46.46,0-2.23,2.37l.07-.09,0-.11c0-.06,0-.09,0-.15v-.18c-2.21-15.89-14.11-30.61-12.18-47.1v-.2c0-.07,0-.11,0-.19s0-.12,0-.19l0-.19c0-.08,0-.11-.06-.19l-.07-.18-.09-.18a1.51,1.51,0,0,0-.09-.18l-.11-.16-.12-.17-.12-.16-.14-.15-.15-.15-.16-.14-.16-.14Z"/><path class="cls-36" d="M118.55,67.32c6.76-2.52,9.67-4.48,16.08-7.62l.13.13.2.2.18.2.18.19.17.21.16.2.14.21.14.2.13.21.12.21.1.2.09.21.08.2.07.2,0,.21,0,.19c1.18,7.43,1.22,12.75,1.57,23.62,0,1.57.08,2.35.15,3.89.23,4.9.39,7.24.66,12.06V103l-.05.5-.1.45c-.06.16-.09.24-.14.4s-.12.21-.19.36l-.22.31-.26.27a3.06,3.06,0,0,0-.29.21c-6.08,3.77-7.1,7.7-8.77,10.11l0-.08,0-.12v-.15a1,1,0,0,1,0-.17c-3.59-14.92-9.85-29.63-8.86-45.25,0-.07,0-.11,0-.18s0-.1,0-.17l0-.18,0-.18-.07-.17-.08-.17-.09-.17-.1-.16-.12-.16-.12-.16-.14-.15-.15-.15-.15-.14-.16-.13-.17-.13Z"/><path class="cls-13" d="M113.87,64.64c.68-.29,1-.44,1.69-.76,0-.59,0-.89,0-1.57v-.17l0-.09,0-.08,0-.08,0-.08-.05-.08,0-.08-.07-.08-.07-.08-.07-.07-.08-.08-.09-.07-.09-.07-.1-.06-.1-.07-.1-.06-.12-.06-.11-.06-.12,0-.13-.05-.12,0-.14,0-.13,0-.15,0-.14,0-.14,0-.15,0-.16,0h-.47c-2.46,0-4,.09-5.89-1.05l-.24-.14-.22-.12-.22-.09-.2-.07-.18-.05-.17,0h-.16L105,59a5.28,5.28,0,0,1-1,.22h.13l.13,0,.15.06.16.08.18.1.18.13.2.15.2.17c1.62,1.39,2.85,1.66,5.38,1.68h.48l.16,0,.15,0,.15,0,.15,0,.14,0,.14,0,.14,0,.13,0,.13,0,.12,0,.12.05.11.06.11.05.1.06.1.06.09.06.09.07.08.06.08.07.07.07.06.07.06.07,0,.07,0,.08,0,.07,0,.07,0,.08,0,.08v.08C113.86,63.83,113.86,64.11,113.87,64.64Z"/><path class="cls-14" d="M104.73,63.4a8.48,8.48,0,0,0,1.1-.19V61.36l0-.07,0,0,0-.05,0,0,0,0,.06,0a7.14,7.14,0,0,1-1.15.31h0l0,0,0,0,0,0,0,0v.06l0,.06v.08C104.72,62.48,104.72,62.8,104.73,63.4Z"/><path class="cls-15" d="M111.64,63.41v1.27l2.23,0c0-.53,0-.81,0-1.42,0-.83-1.39-1.62-3.15-1.63-2.53,0-3.76-.29-5.38-1.68-1.13-1-1.82-.94-1.82.28,0,.91,0,1.32,0,2.07a6.19,6.19,0,0,0,1.21,1.14c0-.6,0-.92,0-1.65,0-.42.32-.47.77-.15,1.52,1.06,2.61,1.28,4.92,1.24C111.09,62.83,111.64,63.1,111.64,63.41Z"/><path class="cls-14" d="M114.58,61.06h0l.1.07.1.06.09.07.09.07.08.08.07.07.07.08.07.08,0,.08.05.08,0,.08,0,.08,0,.08,0,.09v.17c0,.68,0,1,0,1.57-.67.32-1,.47-1.69.76,0-.53,0-.81,0-1.42v-.08l0-.08,0-.08,0-.07,0-.07,0-.08,0-.07-.06-.07-.06-.07-.07-.07-.08-.07-.08-.06-.09-.07-.09-.06-.1-.06-.1-.06h0C113.58,61.7,113.92,61.49,114.58,61.06Z"/><path class="cls-8" d="M135.13,77.19c-4.12,1.73-6.45,2.61-10.6,4.25-.24-3.61-.1-5.66-.21-8.48,4.24-1.33,6.29-2,10.3-3.31A70.33,70.33,0,0,1,135.13,77.19Z"/><path class="cls-16" d="M133.87,69c-4,1.3-6.05,2-10.28,3.26,0,.58,0,.88.06,1.52.57.35.86.54,1.44.91a.87.87,0,0,0,1.12-.28c.91-1,1.35-1.5,2.23-2.43a.93.93,0,0,1,1.06-.29c1.28.63,1.92,1,3.2,1.67a.88.88,0,0,0,1.1-.36l.41-.54C134.1,70.93,134,70.25,133.87,69Z"/><path class="cls-17" d="M132.32,98.69c-.42-2.94-.64-4.4-1-7.38-1,.54-1.49.8-2.41,1.34.51,3,.82,4.49,1.39,7.47C131.07,99.54,131.47,99.25,132.32,98.69Z"/><path class="cls-18" d="M132.32,98.69c-.42-2.94-.64-4.4-1-7.38,1-.53,1.53-.8,2.62-1.33.2,3,.35,4.41.63,7.32C133.62,97.85,133.17,98.13,132.32,98.69Z"/><path class="cls-19" d="M128.57,101.58c-.74-3-1.14-4.53-1.85-7.56.84-.55,1.28-.82,2.21-1.37.51,3,.82,4.49,1.39,7.47C129.58,100.69,129.23,101,128.57,101.58Z"/><path class="cls-25" d="M69.08,76.81C68.09,85.5,72.74,96,72.68,97s-2.36,20.62-2.36,20.62l4-.05L78.52,98.7l.15-23.21S70.08,68.11,69.08,76.81Z"/><path class="cls-26" d="M75.52,76.81s1.91,22.61,1.65,23.75-3.38,14.24-4.52,15.64c-2.62,3.23,5.78-.07,5.78-.07l6.39-17,.29-23.63Z"/><path class="cls-37" d="M81.18,61.63S69.25,66,68.12,77.23C67.33,85,82.87,82.6,84.94,81.17,88.09,76.84,81.18,61.63,81.18,61.63Z"/><path class="cls-38" d="M89.4,57.06s21.87-.55,23.84,2,19.46,10.07,21.08,20.12-4.76,43.72-8.34,43.91c-10.84.57-10.22,2.88-38.24-1.86-8.41-1.43-11-5.08-11-5.08C76,105,71.13,79,78.4,64.17,80,60.89,87.33,60,89.4,57.06Z"/><path class="cls-25" d="M89.68,46.61l.26,11.54v.57c-.37-.14-6.84,11.36,3.2,15a27.34,27.34,0,0,0,4.25.55c8.23-11.54,5.3-22.51,5.29-29.44Z"/><path class="cls-25" d="M112.42,52.52a67.26,67.26,0,0,1,.82-7l-10.55-.79a68.58,68.58,0,0,1-2.2,17.55A21.92,21.92,0,0,0,112.42,52.52Z"/><path class="cls-26" d="M112.45,49.39c-3,5.22-11.14,10.22-15.64,11.86a23.17,23.17,0,0,0,.59,13c8.92.78,14.48-10.85,15.84-15.2a4.37,4.37,0,0,1-.69-1.9A63.3,63.3,0,0,1,112.45,49.39Z"/><path class="cls-26" d="M102.81,12.67h-3S93.3,39.56,91.76,40.48C89.31,42,93.87,46.2,93.87,46.2s-.19,0-.05,3.48c.07,2,3.85,3,3.22,7.38,6.79.58,16.87-2.18,21.09-15.57C123.15,25.52,116.62,13.39,102.81,12.67Z"/><path class="cls-27" d="M95.31,48.19a6.08,6.08,0,0,0-2.93-5l2.79-7.13a51.06,51.06,0,0,1,7.63-23.42c-22.56-1.16-21.09,40.12-9.25,43.74a16.57,16.57,0,0,0,3.49.65C97.67,52.63,95.38,50.14,95.31,48.19Z"/><path class="cls-20" d="M104,11.08c12.47,1.06,22.46,19.38,11.88,35.71-.85,2,2.31-9.09.05-9.73-1.28-.36-5.64,1.36-5.45,4.32.16,2.33-3.16-1.72-3.16-1.72l-.83-4.72c2.58-13.51-10.57-7.3-10.57-7.3s-8.37-5.84-10.16,2.48c-1.41,6.6-1,1.55-1.26.87C84.92,23.45,88.72,9.78,104,11.08Z"/><path class="cls-20" d="M110,14.59h1.2l1.64-1.94-.92,2.7,2.29-1.88-1,2.79,3.55,1.94h-3.55l6.57,5.46-4.67-2.24,6.37,7.34-5.46-4.23,4,8.08L115.8,27l3.73,9.37L115.14,29l-7.06-6.56-9.55-3.76-7.35,2.86L87.1,25.4l-2,7.44s2.11-7.69,0-10.54l2.44-1.25-2.89-1.74,4.67.38-4.47-3.48,7.83-1.49L89.48,14l6.26-1.89,4.65-.59"/><path class="cls-25" d="M120.92,82.4c-1,8.7,3.65,19.2,3.59,20.19s-7.22,21.3-7.22,21.3l8.82-.73,4.25-18.87.15-23.2S121.91,73.7,120.92,82.4Z"/><path class="cls-26" d="M127.36,82.4s1.9,22.62,1.64,23.75-3.38,14.24-4.51,15.64c-2.62,3.23,5.78-.06,5.78-.06l6.39-17,.28-23.63Z"/><path class="cls-37" d="M124.21,67.23s11.92,4.37,13.06,15.59c.78,7.78-14.76,5.37-16.83,4C117.29,82.43,124.21,67.23,124.21,67.23Z"/><path class="cls-37" d="M102.8,76.41s14-11.68,12.22-16-2.4-3-2.4-3c-.13,6.09-15.75,16.8-15.75,16.8C97,75.92,102.07,72.16,102.8,76.41Z"/><path class="cls-37" d="M86.63,58.15a7.42,7.42,0,0,1,3.29-1.1c-4,1.86,7,17.21,7,17.21,0,1.37-3.5-2.63-5.69,2.15C91.18,76.41,83,64.86,86.63,58.15Z"/><path class="cls-39" d="M125.31,66.72s-13.93,17.61-2,31.64l0,4.43s-20-7.53-4.14-39.4C119.16,63.39,125.28,60.08,125.31,66.72Z"/><path class="cls-40" d="M85.69,64.14s-13,2.49-10.29,30.06l-.23-3.55s-5-25.92,10.47-32Z"/></svg>