<?xml version="1.0" encoding="utf-8"?>
<!-- Generator: Adobe Illustrator 19.0.0, SVG Export Plug-In . SVG Version: 6.00 Build 0)  -->
<svg version="1.1" id="Capa_1" xmlns="http://www.w3.org/2000/svg" xmlns:xlink="http://www.w3.org/1999/xlink" x="0px" y="0px"
	 viewBox="0 0 50.5 78.5" style="enable-background:new 0 0 50.5 78.5;" xml:space="preserve">
<style type="text/css">
	.st0{fill:url(#XMLID_57_);}
	.st1{fill:url(#XMLID_58_);}
	.st2{fill:#F9F6F7;}
	.st3{fill:#434342;}
</style>
<g id="XMLID_2_">
	<g id="XMLID_3_">
		<g id="XMLID_4_">
			<g id="XMLID_10_">
				<g id="XMLID_11_">
					<linearGradient id="XMLID_57_" gradientUnits="userSpaceOnUse" x1="8.8656" y1="6.1262" x2="43.1749" y2="65.5516">
						<stop  offset="0.1692" style="stop-color:#E52829"/>
						<stop  offset="0.9962" style="stop-color:#8D1812"/>
					</linearGradient>
					<path id="XMLID_17_" class="st0" d="M44.8,17.3C41.1,10.9,36.2,5.7,31,2.7c-5.2-3-10.1-3.5-13.8-1.4L5.7,7.9
						c3.7-2.1,8.6-1.6,13.8,1.4c5.2,3,10.1,8.2,13.8,14.6c5.7,10,7.1,20.6,4.2,27c0,0.1-0.1,0.2-0.1,0.3l0,0.1
						c-0.3,0.6-0.6,1.1-1,1.6l-14.9,25c-0.1,0.2-0.3,0.3-0.4,0.4l11.5-6.7c0.2-0.1,0.3-0.2,0.4-0.4l14.9-25c0.4-0.5,0.7-1.1,1-1.6
						l0-0.1c0.1-0.1,0.1-0.2,0.1-0.3C51.9,37.8,50.6,27.2,44.8,17.3z"/>
					<g id="XMLID_12_">
						<g id="XMLID_13_">
							<g id="XMLID_14_">
								<linearGradient id="XMLID_58_" gradientUnits="userSpaceOnUse" x1="-29.4786" y1="42.5683" x2="59.8185" y2="42.5683">
									<stop  offset="0" style="stop-color:#D52128"/>
									<stop  offset="0.9962" style="stop-color:#E52328"/>
								</linearGradient>
								<path id="XMLID_16_" class="st1" d="M19.5,9.3c-5.2-3-10.1-3.5-13.8-1.4l0,0C2,10.1,0,14.5,0,20.5c0,4.1,0.9,8.5,2.7,13
									l14.7,42.1c0.4,1.1,1.2,2.1,2,2.6c0.6,0.4,1.2,0.4,1.6,0.2c0.2-0.1,0.3-0.2,0.4-0.4l14.9-25c0.4-0.5,0.7-1,1-1.6l0-0.1
									c0-0.1,0.1-0.2,0.1-0.3c3-6.5,1.6-17.1-4.2-27C29.6,17.5,24.7,12.3,19.5,9.3z"/>
								<path id="XMLID_15_" class="st2" d="M30.1,25.7c-2.8-4.9-6.6-8.9-10.6-11.2c-4-2.3-7.8-2.7-10.6-1.1
									c-2.8,1.6-4.4,5.1-4.4,9.7c0,2.3,0.4,4.8,1.2,7.4C5.8,31,6,31.5,6.2,32c0.2,0.4,0.3,0.9,0.5,1.3c0.6,1.6,1.4,3.1,2.2,4.6
									c2.8,4.9,6.6,8.9,10.6,11.2c4,2.3,7.7,2.7,10.6,1.1c0.9-0.5,1.7-1.2,2.3-2.1c0.2-0.2,0.3-0.5,0.5-0.7
									c0.1-0.2,0.3-0.5,0.4-0.8C35.6,41.7,34.5,33.5,30.1,25.7z"/>
							</g>
						</g>
					</g>
				</g>
			</g>
			<g id="XMLID_5_">
				<path id="XMLID_7_" class="st3" d="M19.5,20.1c-5.6-3.2-10.2-0.6-10.2,5.9c0,6.5,4.6,14.4,10.2,17.6c5.6,3.2,10.2,0.6,10.2-5.9
					C29.7,31.2,25.1,23.3,19.5,20.1z M19.5,40.8c-4.3-2.5-7.8-8.5-7.8-13.5c0-5,3.5-7,7.8-4.5c4.3,2.5,7.8,8.5,7.8,13.5
					S23.8,43.3,19.5,40.8z"/>
				<path id="XMLID_6_" class="st3" d="M24.2,28.6L19.6,29c-0.7-0.4-1.4-0.6-1.9-0.3c-0.5,0.3-0.8,1-0.7,1.8l-2.7,3.7
					c-0.1,0.1-0.1,0.3,0.1,0.5c0.1,0.1,0.2,0.2,0.2,0.3c0.1,0,0.1,0,0.2,0l4.6-0.5c0,0,0.1,0.1,0.1,0.1c0.7,0.4,1.3,0.5,1.8,0.2
					c0.5-0.3,0.8-1,0.7-1.8l2.7-3.7c0.1-0.1,0.1-0.3-0.1-0.5C24.5,28.7,24.3,28.5,24.2,28.6z"/>
			</g>
		</g>
	</g>
</g>
</svg>
