<svg xmlns="http://www.w3.org/2000/svg" xmlns:xlink="http://www.w3.org/1999/xlink" viewBox="0 0 46.66 29.99"><defs><style>.cls-1{fill:#8b878d;}.cls-2{fill:#dbdbdb;}.cls-3{fill:#181818;}.cls-3,.cls-5,.cls-6{opacity:0.1;}.cls-4{fill:#fff;}.cls-5{fill:url(#linear-gradient);}.cls-6{fill:url(#linear-gradient-2);}</style><linearGradient id="linear-gradient" y1="6.42" x2="46.66" y2="6.42" gradientUnits="userSpaceOnUse"><stop offset="0" stop-color="#fff"/><stop offset="1" stop-color="#6d6352"/></linearGradient><linearGradient id="linear-gradient-2" x1="14.86" y1="15" x2="46.66" y2="15" xlink:href="#linear-gradient"/></defs><title>Recurso 5</title><g id="Capa_2" data-name="Capa 2"><g id="homeWEB"><polygon class="cls-1" points="46.66 0 11.28 27.12 13.63 13.55 46.66 0"/><polygon class="cls-2" points="8.94 12.84 8.94 12.84 11.28 27.12 14.86 18.94 46.66 0 8.94 12.84"/><polygon class="cls-3" points="8.94 12.84 8.94 12.84 11.28 27.12 14.86 18.94 46.66 0 8.94 12.84"/><polygon class="cls-4" points="0 8.65 46.66 0 8.94 12.84 0 8.65"/><polygon class="cls-5" points="0 8.65 46.66 0 8.94 12.84 0 8.65"/><polygon class="cls-4" points="46.66 0 25.57 29.99 14.86 18.94 46.66 0"/><polygon class="cls-6" points="46.66 0 25.57 29.99 14.86 18.94 46.66 0"/></g></g></svg>