<?xml version="1.0" encoding="utf-8"?>
<!-- Generator: Adobe Illustrator 19.0.0, SVG Export Plug-In . SVG Version: 6.00 Build 0)  -->
<svg version="1.1" id="Capa_1" xmlns="http://www.w3.org/2000/svg" xmlns:xlink="http://www.w3.org/1999/xlink" x="0px" y="0px"
	 viewBox="0 0 38 36.5" style="enable-background:new 0 0 38 36.5;" xml:space="preserve">
<style type="text/css">
	.st0{fill:#FFFFFF;}
</style>
<path id="XMLID_15_" class="st0" d="M21.9,1.8l3.4,6.8c0.5,1,1.4,1.6,2.4,1.8l7.5,1.1c2.6,0.4,3.7,3.6,1.8,5.5l-5.5,5.3
	c-0.8,0.7-1.1,1.8-0.9,2.9l1.3,7.5c0.5,2.6-2.3,4.7-4.7,3.4l-6.7-3.5c-0.9-0.5-2.1-0.5-3,0l-6.7,3.5c-2.4,1.2-5.1-0.8-4.7-3.4
	l1.3-7.5c0.2-1-0.2-2.1-0.9-2.9L1,17c-1.9-1.9-0.9-5.1,1.8-5.5l7.5-1.1c1.1-0.2,2-0.8,2.4-1.8l3.4-6.8C17.3-0.6,20.7-0.6,21.9,1.8z"
	/>
</svg>
