<svg xmlns="http://www.w3.org/2000/svg" viewBox="0 0 84.7 29"><defs><style>.cls-1{fill:#023d80;}.cls-1,.cls-2,.cls-3{fill-rule:evenodd;}.cls-2{fill:#f8c300;}.cls-3{fill:#c33a2a;}</style></defs><title>Recurso 2</title><g id="Capa_2" data-name="Capa 2"><g id="salida_y_regreso" data-name="salida y regreso"><path class="cls-1" d="M3.52,7.57Q3,8.13,3,7.27c.42-3,3.7-5.52,7-5.19.86-.06,2,1.64,1.76,2.85C11.51,6.58,9.73,6.7,9.57,7.61c0,.7,3.36.54,3,3.16-.76,3.49-4.89,4.72-7.18,4.7-1.82,0-3.6-.75-3.16-1.62L4.32,9.71c.26-.43-.43-1-.17-1.4S5.09,7.73,5.36,7l.22-1.09c-.09-.46-.39-.36-.71-.19L3.52,7.57ZM65.29,14a.85.85,0,1,1-.83.85.84.84,0,0,1,.83-.85ZM52.87,9.27c.74-.51.78-1.45,1.25-1.54.39.06.76.87,1.05.94s1.1-1,2.14-1c2.59.14,2.27,6.54.73,7.78a6,6,0,0,1-.25-4.54C58,10,57.87,9.3,57,9.27c-1.18,0-2.06,1.27-3.52,5.61,0,.66-.48.61-.71.31a3.33,3.33,0,0,1-.38-2.89,5.39,5.39,0,0,0,.44-3ZM37.53,8.9A.52.52,0,0,1,38,8.25c.48,0,.17.87.94.95.37,0,.73-1.13,2.09-1.45.92-.21,1.12.5.74.8A13.49,13.49,0,0,0,39,11.17,9.3,9.3,0,0,0,38.36,15c0,.44-1.28.5-1.27-.09.14-2.28.66-4.58.44-6ZM48.06,7.48c.46.13,1,.08.94.38.1.53.58.92.82,1.6a1.87,1.87,0,0,1-.06,1.21L49,12.89c-.73,1.93,2.87-.25,2.94.83.13,1.36-1,1.69-2.26,1.86-1.06,0-1.53-.87-1.94-1.48-.66.6-2.23,1.73-3.38,1.36-2.68-1.14,1-8.22,3.74-8ZM44.65,13.8a6,6,0,0,1,3.18-4.73c.22.4.55.43,1,.44,0,1.18-2,4.39-4.18,4.29Zm-.76-8.42-.35-.27-.32-.47V4.23l.06-.47.18-.3.24-.29L44,3.08l.21.06.21.33.12.27.06.33v.59L44.54,5l-.12.21-.15.15Zm-1.21,2c.59.35.68,1,.65,2.3-.17,3.07-.74,3.61-1.12,5.41-.14.41-.48.27-.5-.09-.21-5,.65-5.08,1-7.62Zm-18.8-2-.35-.27-.32-.47V4.29l.06-.47.18-.3.24-.29L24,3.14l.21.06.21.32.12.27.06.32V4.7l-.06.35-.12.21-.15.15Zm-1.21,2c.59.35.68,1,.65,2.3-.17,3.07-.74,3.61-1.12,5.41-.14.41-.48.27-.5-.09-.21-5,.65-5.08,1-7.62Zm9.88,0c.46.13,1,.08.94.38.1.53.58.92.82,1.6a1.88,1.88,0,0,1-.06,1.21l-.79,2.22c-.73,1.93,2.87-.25,2.94.83.13,1.36-1,1.69-2.27,1.86-1.06,0-1.53-.87-1.94-1.48-.66.6-2.22,1.73-3.38,1.36-2.68-1.14,1-8.22,3.74-8Zm-3.41,6.32A6,6,0,0,1,32.33,9c.22.4.55.43,1,.44,0,1.18-2,4.39-4.18,4.29ZM24.06,8.34c.07-.79.54-.59.76,0a18,18,0,0,1,.62,4.52c0,.45.18.43.38,0a26.92,26.92,0,0,1,2.44-4.76.37.37,0,0,1,.62.38,37.81,37.81,0,0,1-2.74,6.26c-.46.75-1,.71-1.35-.15a17.92,17.92,0,0,1-.73-6.23ZM20.94,3c.39,0,.85.51,1.15,1.09s-.89,8.22-1.82,11.44c-.25.21-1.11-1.27-1.09-1.83,1-5,1.51-10.61,1.76-10.7Zm38.47,7.23c.6-2.07,1.45-1.67,1.94-2,.4-.16.72-.52,1.38-.53A3,3,0,0,1,65.26,11a5,5,0,0,1-3.82,4.73c-1.53-.91-2.15-4.27-2-5.56Zm1.85,3.61c1.87.32,4.18-2.69,2.41-4.43C62,9.34,61,10,61.26,13.8Zm-48.2-3.72c.6-2.07,1.45-1.67,1.94-2,.4-.16.71-.52,1.38-.53a3,3,0,0,1,2.53,3.37,5,5,0,0,1-3.82,4.73c-1.53-.91-2.15-4.26-2-5.56Zm1.85,3.6c1.87.32,4.18-2.69,2.41-4.43-1.72,0-2.68.66-2.41,4.43Zm-9-4.31c3-.52,5.14-.56,5.32,1.21-.08,2.33-4.09,4.31-6.47,3-.53-.26-.76-.39-.44-1Zm.62-4.82a3.66,3.66,0,0,1,.29,2.78c1.18-.33,3.85-2,3.53-3-.5-1-2.82-.53-3.82.27Zm0,0"/><path class="cls-2" d="M77.41.13c.15-.22.41-.17.36.13a6,6,0,0,0-.06,1.87c.1.65-.28.63-.33.23-.14-1-.22-1.4-1.78-.12-.28.24-.51,0-.32-.15a12,12,0,0,0,2.12-2ZM.84,17.62,0,19.39c29.27-1.4,55.82-2,71.17.56,3.85,1.19,7.18,2.12,6.42,5.21-.1.37.32.4.4.15.78-3.05-1.63-4.33-5.33-5.55C58.42,15.72,31,16.2.84,17.62ZM84.7,16.3q-7-3.42-2.85,10.4l-1.58-1.14c-2.83-8.16-.63-13,4.44-9.26ZM66.76,17c1.72-1.11,2.4-3,1.58-6l.76-1.46q2.38,5.48-2.34,7.42Zm9.89-13.5c-1.55,4.43-2.81,8.7,5.2,8.18-.19.32-.38.7-.57,1-7.14.71-8.56-2.47-4.63-9.19Zm-7.8,4A8.68,8.68,0,0,0,75.38,3L76.65,2C76,5.62,72,7.79,68.85,7.49Zm13.4,21.36c.13.23.39.21.37-.1a6,6,0,0,1,.12-1.87c.16-.64-.21-.66-.3-.26-.23.94-.35,1.37-1.78,0-.25-.27-.51,0-.33.12a12,12,0,0,1,1.92,2.16Zm-15-21.51c-.08-.25.12-.43.33-.2A6,6,0,0,0,69,8.36c.57.33.32.61,0,.4-.83-.49-1.22-.71-1.21,1.31,0,.36-.32.39-.32.16a12,12,0,0,0-.19-2.88ZM84,11.19c.23-.12.21-.39-.09-.37a6,6,0,0,1-1.86-.14c-.64-.17-.66.21-.27.3.94.24,1.37.36-.07,1.78-.27.25,0,.51.11.33A11.93,11.93,0,0,1,84,11.19Zm0,0"/><path class="cls-3" d="M14.07,20.54h.36l1.15,4.09,1.2-4.09h.34L15.76,25.1H15.4Zm4.39,2.9a1.11,1.11,0,0,0-.7.19.65.65,0,0,0-.24.55.7.7,0,0,0,.14.46.46.46,0,0,0,.38.18.68.68,0,0,0,.57-.29,1.28,1.28,0,0,0,.21-.78v-.3Zm.68-.43V25.1h-.29v-.57a1.12,1.12,0,0,1-.36.46.84.84,0,0,1-.5.15.75.75,0,0,1-.6-.26,1.14,1.14,0,0,1,.12-1.5,1.47,1.47,0,0,1,1-.29h.33s0,0,0-.06,0,0,0-.05a1.1,1.1,0,0,0-.16-.64.51.51,0,0,0-.44-.23,1.08,1.08,0,0,0-.38.07,1.33,1.33,0,0,0-.36.21V22a1.67,1.67,0,0,1,.39-.18,1.3,1.3,0,0,1,.39-.06.76.76,0,0,1,.67.31,1.63,1.63,0,0,1,.22.94Zm2.74-.53a1.32,1.32,0,0,1,.36-.53.74.74,0,0,1,.49-.19.66.66,0,0,1,.6.34,2,2,0,0,1,.2,1v2h-.33V23.2a1.85,1.85,0,0,0-.13-.8.43.43,0,0,0-.41-.26.6.6,0,0,0-.54.33,1.83,1.83,0,0,0-.2.92v1.7h-.32V23.2a1.86,1.86,0,0,0-.13-.8.43.43,0,0,0-.41-.26.6.6,0,0,0-.54.33,1.84,1.84,0,0,0-.2.92v1.7H20V21.83h.3v.62a1.21,1.21,0,0,1,.34-.51.74.74,0,0,1,.48-.18.65.65,0,0,1,.46.18,1.13,1.13,0,0,1,.28.54Zm3.49-.38a.7.7,0,0,0-.61.37,2.17,2.17,0,0,0,0,2,.7.7,0,0,0,1.24,0,2.21,2.21,0,0,0,0-2,.71.71,0,0,0-.62-.37Zm0-.35a1,1,0,0,1,.87.46,2.56,2.56,0,0,1,0,2.5,1.05,1.05,0,0,1-1.75,0,2.55,2.55,0,0,1,0-2.5,1,1,0,0,1,.87-.46Zm3.18.14v.39a1.38,1.38,0,0,0-.29-.12,1.19,1.19,0,0,0-.31,0,.57.57,0,0,0-.39.13.43.43,0,0,0-.15.34q0,.29.5.58l.07,0a1.76,1.76,0,0,1,.54.45.9.9,0,0,1,.15.52.88.88,0,0,1-.94.94,1.7,1.7,0,0,1-.36,0,1.24,1.24,0,0,1-.32-.12V24.6a1.43,1.43,0,0,0,.33.15,1.14,1.14,0,0,0,.33.05.63.63,0,0,0,.45-.16.53.53,0,0,0,.17-.41.6.6,0,0,0-.1-.35,1.78,1.78,0,0,0-.5-.38,1.77,1.77,0,0,1-.53-.43.8.8,0,0,1-.13-.47.78.78,0,0,1,.23-.58.84.84,0,0,1,.61-.23,1.89,1.89,0,0,1,.33,0,1.47,1.47,0,0,1,.3.08Zm2.53,2.64v1.93h-.33V21.83h.3v.64a1.34,1.34,0,0,1,.38-.53.81.81,0,0,1,.51-.18.86.86,0,0,1,.76.45A2.27,2.27,0,0,1,33,23.42a2.34,2.34,0,0,1-.29,1.25.89.89,0,0,1-.78.47.8.8,0,0,1-.48-.15,1.12,1.12,0,0,1-.35-.44Zm1.55-1.1a2,2,0,0,0-.2-1,.61.61,0,0,0-.55-.35.67.67,0,0,0-.59.36,1.85,1.85,0,0,0-.22,1,2,2,0,0,0,.21,1,.65.65,0,0,0,.59.36.61.61,0,0,0,.55-.37,2,2,0,0,0,.21-1Zm2-1.34a.7.7,0,0,0-.61.37,2.17,2.17,0,0,0,0,2,.7.7,0,0,0,1.24,0,2.21,2.21,0,0,0,0-2,.71.71,0,0,0-.62-.37Zm0-.35a1,1,0,0,1,.87.46,2.56,2.56,0,0,1,0,2.5,1.05,1.05,0,0,1-1.74,0,2.56,2.56,0,0,1,0-2.5,1,1,0,0,1,.87-.46Zm3.11,0v.42l-.1,0h-.08a.57.57,0,0,0-.51.31,1.69,1.69,0,0,0-.19.86V25.1h-.33V21.83h.3v.69a1.19,1.19,0,0,1,.29-.54.61.61,0,0,1,.45-.19h.16Zm4.44-1.12v.41a2,2,0,0,0-.41-.15,1.55,1.55,0,0,0-.38,0,1.31,1.31,0,0,0-1.1.52,2.32,2.32,0,0,0-.4,1.44,2.13,2.13,0,0,0,.4,1.37,1.33,1.33,0,0,0,1.1.5,1.75,1.75,0,0,0,.4,0,1.51,1.51,0,0,0,.37-.14V25a1.65,1.65,0,0,1-.37.11,2.78,2.78,0,0,1-.46,0,1.59,1.59,0,0,1-1.31-.61,2.57,2.57,0,0,1-.49-1.65,2.62,2.62,0,0,1,.51-1.7,1.66,1.66,0,0,1,1.36-.63,2.23,2.23,0,0,1,.42,0,1.34,1.34,0,0,1,.35.12Zm1.55,1.42a.7.7,0,0,0-.61.37,2.17,2.17,0,0,0,0,2,.7.7,0,0,0,1.24,0,2.21,2.21,0,0,0,0-2,.71.71,0,0,0-.62-.37Zm0-.35a1,1,0,0,1,.87.46,2.56,2.56,0,0,1,0,2.5,1.05,1.05,0,0,1-1.75,0,2.56,2.56,0,0,1,0-2.5,1,1,0,0,1,.87-.46Zm1.88-1.55H46v4.9h-.33Zm2.2,1.9a.7.7,0,0,0-.62.37,2.17,2.17,0,0,0,0,2,.7.7,0,0,0,.61.37.71.71,0,0,0,.62-.37,2.22,2.22,0,0,0,0-2,.72.72,0,0,0-.62-.37Zm0-.35a1,1,0,0,1,.87.46,2.57,2.57,0,0,1,0,2.5,1.05,1.05,0,0,1-1.75,0,2.55,2.55,0,0,1,0-2.5,1,1,0,0,1,.87-.46Zm3.78.73A1.31,1.31,0,0,1,52,22a.73.73,0,0,1,.49-.19.66.66,0,0,1,.6.34,2,2,0,0,1,.2,1v2H53V23.2a1.85,1.85,0,0,0-.13-.8.43.43,0,0,0-.41-.26.6.6,0,0,0-.54.33,1.83,1.83,0,0,0-.19.92v1.7h-.32V23.2a1.85,1.85,0,0,0-.13-.8.43.43,0,0,0-.41-.26.6.6,0,0,0-.54.33,1.83,1.83,0,0,0-.2.92v1.7h-.33V21.83h.3v.62a1.22,1.22,0,0,1,.34-.51.74.74,0,0,1,.48-.18.64.64,0,0,1,.46.18,1.12,1.12,0,0,1,.28.54Zm3.63-.39a.66.66,0,0,0-.59.36,2,2,0,0,0-.21,1,1.89,1.89,0,0,0,.22,1,.65.65,0,0,0,.57.37.62.62,0,0,0,.55-.36,2,2,0,0,0,.21-1,2.08,2.08,0,0,0-.2-1,.61.61,0,0,0-.54-.37ZM54.15,20.2h.33v2.17a1.12,1.12,0,0,1,.35-.46.79.79,0,0,1,.48-.16.88.88,0,0,1,.77.45,2.23,2.23,0,0,1,.29,1.21,2.41,2.41,0,0,1-.29,1.25.85.85,0,0,1-.74.48.81.81,0,0,1-.52-.18,1.31,1.31,0,0,1-.37-.53v.67h-.3ZM57,21.83h.33V25.1H57Zm0-1.53h.37v.53H57Zm2.28,3.14a1.1,1.1,0,0,0-.7.19.65.65,0,0,0-.25.55.7.7,0,0,0,.14.46.46.46,0,0,0,.38.18.68.68,0,0,0,.57-.29,1.28,1.28,0,0,0,.21-.78v-.3ZM60,23V25.1h-.29v-.57a1.12,1.12,0,0,1-.36.46.84.84,0,0,1-.5.15.75.75,0,0,1-.6-.26,1.14,1.14,0,0,1,.12-1.5,1.47,1.47,0,0,1,1-.29h.33s0,0,0-.06,0,0,0-.05a1.11,1.11,0,0,0-.16-.64.51.51,0,0,0-.44-.23,1.08,1.08,0,0,0-.38.07,1.36,1.36,0,0,0-.36.21V22a1.68,1.68,0,0,1,.39-.18,1.31,1.31,0,0,1,.39-.06.76.76,0,0,1,.66.31A1.63,1.63,0,0,1,60,23Zm0,0"/></g></g></svg>