<?xml version="1.0" encoding="utf-8"?>
<!-- Generator: Adobe Illustrator 19.1.0, SVG Export Plug-In . SVG Version: 6.00 Build 0)  -->
<svg version="1.1" id="Layer_1" xmlns="http://www.w3.org/2000/svg" xmlns:xlink="http://www.w3.org/1999/xlink" x="0px" y="0px"
	 viewBox="0 0 80 82" style="enable-background:new 0 0 80 82;" xml:space="preserve">
<style type="text/css">
	.st0{fill:none;stroke:#A3A3A2;stroke-width:4;stroke-miterlimit:10;}
	.st1{fill:#272361;}
	.st2{fill:#010101;}
</style>
<g>
	<circle class="st0" cx="40.1" cy="41" r="36.9"/>
	<path class="st1" d="M33.3,20.8c0-2.7-2.2-4.8-4.8-4.8c-2.7,0-4.8,2.2-4.8,4.8c0,2.7,2.2,4.8,4.8,4.8
		C31.1,25.6,33.3,23.4,33.3,20.8z M28.5,23.6c-1.6,0-2.9-1.3-2.9-2.9c0-1.6,1.3-2.9,2.9-2.9s2.9,1.3,2.9,2.9
		C31.4,22.3,30.1,23.6,28.5,23.6z"/>
	<path class="st1" d="M21.8,45.4h1v18.8c0,0.5,0.4,1,1,1h9.6c0.5,0,1-0.4,1-1V45.4h1c1.6,0,2.9-1.3,2.9-2.9V30.4
		c0-2.7-2.2-4.8-4.8-4.8h-9.6c-2.7,0-4.8,2.2-4.8,4.8v12.1C18.9,44.1,20.2,45.4,21.8,45.4z M20.8,30.4c0-1.6,1.3-2.9,2.9-2.9h9.6
		c1.6,0,2.9,1.3,2.9,2.9v12.1c0,0.5-0.4,1-1,1h-1V32.3c0-0.5-0.4-1-1-1c-0.5,0-1,0.4-1,1v31h-2.9V50.2c0-0.5-0.4-1-1-1
		c-0.5,0-1,0.4-1,1v13.1h-2.9v-31c0-0.5-0.4-1-1-1c-0.5,0-1,0.4-1,1v11.2h-1c-0.5,0-1-0.4-1-1V30.4z"/>
	<path class="st1" d="M44.8,47.3h4.8v16.9c0,0.5,0.4,1,1,1h7.7c0.5,0,1-0.4,1-1V47.3h4.8c0.3,0,0.6-0.1,0.8-0.4
		c0.2-0.2,0.2-0.6,0.2-0.8l-5.4-18.4c-0.4-1.2-1.5-2.1-2.8-2.1H52c-1.3,0-2.4,0.8-2.8,2.1l-5.4,18.4c-0.1,0.3,0,0.6,0.2,0.8
		C44.2,47.1,44.5,47.3,44.8,47.3z M51.1,28.2c0.1-0.4,0.5-0.7,0.9-0.7h4.8c0.4,0,0.8,0.3,0.9,0.7l5,17.2h-4.5c-0.5,0-1,0.4-1,1v16.9
		h-1.9V50.2c0-0.5-0.4-1-1-1c-0.5,0-1,0.4-1,1v13.1h-1.9V46.3c0-0.5-0.4-1-1-1h-4.5L51.1,28.2z"/>
	<path class="st1" d="M59.3,20.8c0-2.7-2.2-4.8-4.8-4.8s-4.8,2.2-4.8,4.8c0,2.7,2.2,4.8,4.8,4.8S59.3,23.4,59.3,20.8z M54.4,23.6
		c-1.6,0-2.9-1.3-2.9-2.9c0-1.6,1.3-2.9,2.9-2.9c1.6,0,2.9,1.3,2.9,2.9C57.3,22.3,56,23.6,54.4,23.6z"/>
	<path class="st2" d="M41,65.2c0.5,0,1-0.4,1-1V16.9c0-0.5-0.4-1-1-1s-1,0.4-1,1v47.3C40,64.7,40.5,65.2,41,65.2z"/>
</g>
</svg>
